<svg xmlns="http://www.w3.org/2000/svg" width="75.28" height="75.28" viewBox="0 0 75.28 75.28">
  <g id="asv-pds" transform="translate(-10.08 -10.08)">
    <path id="Контур_2274" data-name="Контур 2274" d="M78.208,85.217H17.232a7.01,7.01,0,0,1-7.012-7.012V17.232a7.011,7.011,0,0,1,7.012-7.012H78.208a7.013,7.013,0,0,1,7.012,7.012V78.208a7.013,7.013,0,0,1-7.012,7.012" fill="#fff"/>
    <path id="Контур_2275" data-name="Контур 2275" d="M17.232,10.22H78.208a7.015,7.015,0,0,1,7.012,7.012V78.208a7.015,7.015,0,0,1-7.012,7.012H17.232a7.015,7.015,0,0,1-7.012-7.012V17.232A7.015,7.015,0,0,1,17.232,10.22Z" fill="none" stroke="#1d1d1b" stroke-miterlimit="10" stroke-width="0.28"/>
    <path id="Контур_2276" data-name="Контур 2276" d="M17.3,10.223H78.135a7.131,7.131,0,0,1,7.088,7.124V60.126H10.23V17.344A7.114,7.114,0,0,1,17.3,10.22" transform="translate(-0.007 0)" fill="#11a63c"/>
    <path id="Контур_2277" data-name="Контур 2277" d="M33.17,187.4l2.846,2.942a6.744,6.744,0,0,0,5.133,2.525l4.448-.029c-1.2-.18-2.007-1-3.026-2.023l-6.263-6.43L33.17,187.4Zm7.965-12.818a5.63,5.63,0,0,1,3.026,2.023l6.263,6.43,3.138-3.013-2.846-2.942a6.744,6.744,0,0,0-5.133-2.525l-4.448.029Z" transform="translate(-15.579 -111.932)" fill="#014593"/>
    <path id="Контур_2278" data-name="Контур 2278" d="M46.017,190.11a.987.987,0,0,1-1.561-.042l-4.394-4.394-.947.964,5.691,5.733a3.429,3.429,0,0,0,5.078.1l3.681-3.78-3.138-3.167-4.407,4.59Zm-9.163-12.581-3.684,3.78,3.138,3.167,4.407-4.59a.989.989,0,0,1,1.561.042l4.407,4.394.935-.964-5.691-5.733a3.731,3.731,0,0,0-2.634-1.176,3.4,3.4,0,0,0-2.444,1.076" transform="translate(-15.579 -113.215)" fill="#11a63c"/>
    <path id="Контур_2279" data-name="Контур 2279" d="M139.567,221.248h.389a1.764,1.764,0,0,1,.662.08.3.3,0,0,1,.17.292.279.279,0,0,1-.148.279,1.083,1.083,0,0,1-.472.077h-.6Zm0-1.166h.488a1.245,1.245,0,0,1,.524.077.267.267,0,0,1,.148.257.294.294,0,0,1-.157.279,1.074,1.074,0,0,1-.511.09h-.488v-.7Zm-.764,2.383h1.808a1.1,1.1,0,0,0,.726-.209.677.677,0,0,0,.244-.543.716.716,0,0,0-.588-.713.709.709,0,0,0,.234-1.217,1.284,1.284,0,0,0-.764-.186H138.8Zm-2.473-2.088a.647.647,0,0,1,.5-.228.63.63,0,0,1,.5.228.94.94,0,0,1,.2.649.967.967,0,0,1-.2.658.661.661,0,0,1-1,0,1.162,1.162,0,0,1,0-1.31m-.793,1.452a1.214,1.214,0,0,0,.546.524,1.661,1.661,0,0,0,.752.18,1.416,1.416,0,0,0,1.057-.427,1.482,1.482,0,0,0,.421-1.079,1.452,1.452,0,0,0-.418-1.07,1.428,1.428,0,0,0-1.066-.424,1.557,1.557,0,0,0-.764.186,1.274,1.274,0,0,0-.527.54,1.532,1.532,0,0,0-.186.732,1.721,1.721,0,0,0,.186.838m-2.775.016a3.039,3.039,0,0,0,.379-1.625h.919v1.625Zm1.734,1.378h.62v-1.378h-.308v-2.248h-2.316a7.387,7.387,0,0,1-.151,1.574,1.691,1.691,0,0,1-.321.674h-.312v1.378h.617v-.758H134.5v.758Zm-3.755-1.982a1.523,1.523,0,0,1-.029.369.477.477,0,0,1-.18.251.658.658,0,0,1-.392.135.417.417,0,0,1-.3-.116.365.365,0,0,1-.119-.276.312.312,0,0,1,.148-.267,1.43,1.43,0,0,1,.414-.132c.212-.045.363-.084.462-.116v.151Zm-.832-1.047a.525.525,0,0,1,.315-.08.654.654,0,0,1,.408.093.386.386,0,0,1,.109.312v.077a4.206,4.206,0,0,1-.739.186,2.617,2.617,0,0,0-.6.177.753.753,0,0,0-.324.292.86.86,0,0,0,.138,1.041.978.978,0,0,0,.7.241,1.171,1.171,0,0,0,.472-.1,1.373,1.373,0,0,0,.418-.283c.006.013.013.045.026.09.029.1.055.173.074.225h.752a1.5,1.5,0,0,1-.135-.385,2.97,2.97,0,0,1-.035-.559l.01-.886a1.545,1.545,0,0,0-.1-.678.756.756,0,0,0-.35-.305,1.809,1.809,0,0,0-.755-.122,1.466,1.466,0,0,0-.842.2,1.1,1.1,0,0,0-.4.617l.691.125a.558.558,0,0,1,.183-.279m-3.951,1.063a2.6,2.6,0,0,1-.035.565c-.022.067-.087.1-.189.1a1.44,1.44,0,0,1-.183-.01l-.125-.006v.559a3.137,3.137,0,0,0,.479.048,1.162,1.162,0,0,0,.443-.061.578.578,0,0,0,.251-.26,1.473,1.473,0,0,0,.116-.691v-1.288h1.034v2.255h.755V219.6h-2.544v1.657ZM123,222.466h.758v-1.224a.386.386,0,0,1,.254.071.97.97,0,0,1,.2.324l.379.829h.816l-.424-.79a.485.485,0,0,1-.029-.058,1.048,1.048,0,0,0-.607-.623.714.714,0,0,0,.382-.488.428.428,0,0,1,.562-.411v-.5c-.145-.01-.244-.013-.3-.013a.771.771,0,0,0-.453.119,1.091,1.091,0,0,0-.318.543,1.6,1.6,0,0,1-.189.414.377.377,0,0,1-.267.116V219.6h-.758v2.868Z" transform="translate(-76.796 -142.458)" fill="#014593"/>
    <path id="Контур_2280" data-name="Контур 2280" d="M112.455,218.572a2.679,2.679,0,0,1,.71.058.507.507,0,0,1,.251.18.515.515,0,0,1,.087.3.491.491,0,0,1-.112.337.478.478,0,0,1-.289.157,3.566,3.566,0,0,1-.549.026h-.742v-1.06ZM112.269,217c.376,0,.6,0,.684.013a.468.468,0,0,1,.3.138.438.438,0,0,1,.1.3.427.427,0,0,1-.116.308.541.541,0,0,1-.324.141c-.074.01-.27.013-.581.013h-.524V217h.459Zm-1.259,3.3h1.349q.766,0,.964-.029a1.147,1.147,0,0,0,.536-.186,1.069,1.069,0,0,0,.344-.408,1.186,1.186,0,0,0,.125-.527.964.964,0,0,0-.193-.6,1.047,1.047,0,0,0-.556-.36.934.934,0,0,0,.408-.347.923.923,0,0,0,.151-.511.9.9,0,0,0-.122-.463,1.009,1.009,0,0,0-.305-.331,1.021,1.021,0,0,0-.414-.164,4.652,4.652,0,0,0-.7-.039h-1.583v3.96Z" transform="translate(-68.587 -140.293)" fill="#014593"/>
    <path id="Контур_2281" data-name="Контур 2281" d="M112.455,218.572a2.679,2.679,0,0,1,.71.058.507.507,0,0,1,.251.18.515.515,0,0,1,.087.3.491.491,0,0,1-.112.337.478.478,0,0,1-.289.157,3.566,3.566,0,0,1-.549.026h-.742v-1.06ZM112.269,217c.376,0,.6,0,.684.013a.468.468,0,0,1,.3.138.438.438,0,0,1,.1.3.427.427,0,0,1-.116.308.541.541,0,0,1-.324.141c-.074.01-.27.013-.581.013h-.524V217h.459Zm-1.259,3.3h1.349q.766,0,.964-.029a1.147,1.147,0,0,0,.536-.186,1.069,1.069,0,0,0,.344-.408,1.186,1.186,0,0,0,.125-.527.964.964,0,0,0-.193-.6,1.047,1.047,0,0,0-.556-.36.934.934,0,0,0,.408-.347.923.923,0,0,0,.151-.511.9.9,0,0,0-.122-.463,1.009,1.009,0,0,0-.305-.331,1.021,1.021,0,0,0-.414-.164,4.652,4.652,0,0,0-.7-.039h-1.583v3.96Z" transform="translate(-68.587 -140.293)" fill="#014593"/>
    <path id="Контур_2282" data-name="Контур 2282" d="M153.185,200.21a1.2,1.2,0,0,1,.157.732,1.235,1.235,0,0,1-.145.668.489.489,0,0,1-.437.222.563.563,0,0,1-.472-.2,1.33,1.33,0,0,1-.154-.764,1.129,1.129,0,0,1,.145-.646.527.527,0,0,1,.459-.2.552.552,0,0,1,.446.189m-3.177,2.155h.758v-1.108h.6a1.271,1.271,0,0,0,1.391,1.172,1.37,1.37,0,0,0,.774-.2,1.209,1.209,0,0,0,.443-.524,1.84,1.84,0,0,0,.145-.755,1.551,1.551,0,0,0-.385-1.131,1.488,1.488,0,0,0-1.95-.055,1.375,1.375,0,0,0-.418.886h-.6v-1.159h-.758v2.868Zm-3.3,0h.729l1.185-1.834v1.834h.729V199.5H148.6l-1.166,1.8v-1.8h-.729v2.868Zm-3.244,0h.758v-1.2H145.3v1.2h.761V199.5H145.3v1.05h-1.086V199.5h-.758Zm-1.352-1.227a1.522,1.522,0,0,1-.029.369.477.477,0,0,1-.18.251.658.658,0,0,1-.392.135.417.417,0,0,1-.3-.116.37.37,0,0,1-.119-.276.316.316,0,0,1,.148-.267,1.335,1.335,0,0,1,.414-.132,4.7,4.7,0,0,0,.463-.116v.151Zm-.832-1.047a.548.548,0,0,1,.315-.08.633.633,0,0,1,.408.093.4.4,0,0,1,.109.312v.077a4.2,4.2,0,0,1-.739.186,2.568,2.568,0,0,0-.6.177.754.754,0,0,0-.324.292.826.826,0,0,0-.116.434.8.8,0,0,0,.257.607.973.973,0,0,0,.7.241,1.171,1.171,0,0,0,.472-.1,1.373,1.373,0,0,0,.418-.283.748.748,0,0,1,.029.09,2.043,2.043,0,0,0,.074.225h.752a1.542,1.542,0,0,1-.135-.385,2.97,2.97,0,0,1-.035-.559l.01-.886a1.545,1.545,0,0,0-.1-.678.756.756,0,0,0-.35-.305,1.816,1.816,0,0,0-.758-.122,1.465,1.465,0,0,0-.841.2,1.068,1.068,0,0,0-.4.617l.687.125a.557.557,0,0,1,.183-.279m-3.2,1.057h.389a1.764,1.764,0,0,1,.662.08.294.294,0,0,1,.17.292.279.279,0,0,1-.148.279,1.083,1.083,0,0,1-.472.077h-.6Zm0-1.166h.488a1.245,1.245,0,0,1,.524.077.267.267,0,0,1,.148.257.294.294,0,0,1-.157.279,1.074,1.074,0,0,1-.511.09h-.488v-.7Zm-.764,2.383h1.808a1.1,1.1,0,0,0,.726-.209.686.686,0,0,0,.247-.546.716.716,0,0,0-.588-.71.709.709,0,0,0,.234-1.217,1.284,1.284,0,0,0-.764-.186h-1.661v2.868Zm-2.473-2.088a.647.647,0,0,1,.5-.228.64.64,0,0,1,.5.228.94.94,0,0,1,.2.649.967.967,0,0,1-.2.658.64.64,0,0,1-.5.228.651.651,0,0,1-.5-.228,1.157,1.157,0,0,1,0-1.307m-.793,1.452a1.24,1.24,0,0,0,.543.524,1.66,1.66,0,0,0,.752.18,1.416,1.416,0,0,0,1.057-.427,1.482,1.482,0,0,0,.421-1.079,1.463,1.463,0,0,0-.414-1.07,1.427,1.427,0,0,0-1.066-.424,1.566,1.566,0,0,0-.764.186,1.274,1.274,0,0,0-.527.54,1.541,1.541,0,0,0-.186.732,1.729,1.729,0,0,0,.186.838m-2.316.636.588-.89.585.89h.931l-1.063-1.51.973-1.359h-.893l-.533.79-.507-.79h-.925l.992,1.391-1.034,1.477h.89Zm-1.908-1.227a1.523,1.523,0,0,1-.029.369.466.466,0,0,1-.183.251.658.658,0,0,1-.392.135.417.417,0,0,1-.3-.116.37.37,0,0,1-.119-.276.316.316,0,0,1,.148-.267,1.334,1.334,0,0,1,.414-.132,4.706,4.706,0,0,0,.463-.116ZM129,200.092a.548.548,0,0,1,.315-.08.633.633,0,0,1,.408.093.4.4,0,0,1,.109.312v.077a4.206,4.206,0,0,1-.739.186,2.569,2.569,0,0,0-.6.177.754.754,0,0,0-.324.292.826.826,0,0,0-.116.434.8.8,0,0,0,.254.607.978.978,0,0,0,.7.241,1.171,1.171,0,0,0,.472-.1,1.373,1.373,0,0,0,.418-.283c.006.013.013.045.026.09.029.1.055.173.074.225h.752a1.542,1.542,0,0,1-.135-.385,2.97,2.97,0,0,1-.035-.559l.01-.886a1.544,1.544,0,0,0-.1-.678.756.756,0,0,0-.35-.305,1.816,1.816,0,0,0-.758-.122,1.491,1.491,0,0,0-.845.2,1.068,1.068,0,0,0-.4.617l.691.125a.557.557,0,0,1,.183-.279m-3.106.154a.578.578,0,0,1,.463-.215.557.557,0,0,1,.45.218,1.034,1.034,0,0,1,.18.671,1.088,1.088,0,0,1-.177.7.55.55,0,0,1-.44.212.6.6,0,0,1-.469-.231,1.1,1.1,0,0,1-.193-.713.951.951,0,0,1,.183-.636m-.935,3.212h.758v-1.445a1.45,1.45,0,0,0,.408.324.952.952,0,0,0,.43.1,1.091,1.091,0,0,0,.851-.4,1.636,1.636,0,0,0,.35-1.118,1.569,1.569,0,0,0-.347-1.092,1.094,1.094,0,0,0-.848-.392,1.059,1.059,0,0,0-.893.485V199.5h-.707v3.96Zm-2.916-3.347h.919v2.255h.761v-2.255h.919V199.5h-2.6v.613Z" transform="translate(-76.281 -128.814)" fill="#014593"/>
    <path id="Контур_2283" data-name="Контур 2283" d="M112.915,199.239a.807.807,0,0,1-.549.2.879.879,0,0,1-.7-.318,1.66,1.66,0,0,1-.27-1.07,1.552,1.552,0,0,1,.273-1.025.9.9,0,0,1,.716-.315.85.85,0,0,1,.543.18.829.829,0,0,1,.292.485l.793-.189a1.545,1.545,0,0,0-.4-.729,1.651,1.651,0,0,0-1.182-.43,1.755,1.755,0,0,0-1.343.546,2.167,2.167,0,0,0-.511,1.535,2.07,2.07,0,0,0,.507,1.474,1.868,1.868,0,0,0,2.351.225,1.734,1.734,0,0,0,.594-.964l-.777-.247a1.184,1.184,0,0,1-.331.639" transform="translate(-68.287 -126.445)" fill="#014593"/>
    <path id="Контур_2284" data-name="Контур 2284" d="M112.915,199.239a.807.807,0,0,1-.549.2.879.879,0,0,1-.7-.318,1.66,1.66,0,0,1-.27-1.07,1.552,1.552,0,0,1,.273-1.025.9.9,0,0,1,.716-.315.85.85,0,0,1,.543.18.829.829,0,0,1,.292.485l.793-.189a1.545,1.545,0,0,0-.4-.729,1.651,1.651,0,0,0-1.182-.43,1.755,1.755,0,0,0-1.343.546,2.167,2.167,0,0,0-.511,1.535,2.07,2.07,0,0,0,.507,1.474,1.868,1.868,0,0,0,2.351.225,1.734,1.734,0,0,0,.594-.964l-.777-.247a1.184,1.184,0,0,1-.331.639" transform="translate(-68.287 -126.445)" fill="#014593"/>
    <path id="Контур_2285" data-name="Контур 2285" d="M151.474,180.168a.647.647,0,0,1,.5-.228.64.64,0,0,1,.5.228.946.946,0,0,1,.2.649.973.973,0,0,1-.2.658.661.661,0,0,1-1,0,1.157,1.157,0,0,1,0-1.307m-.793,1.452a1.222,1.222,0,0,0,.543.524,1.661,1.661,0,0,0,.752.18,1.416,1.416,0,0,0,1.057-.427,1.482,1.482,0,0,0,.421-1.079,1.463,1.463,0,0,0-.414-1.07,1.427,1.427,0,0,0-1.066-.424,1.566,1.566,0,0,0-.764.186,1.274,1.274,0,0,0-.527.54,1.541,1.541,0,0,0-.186.732,1.72,1.72,0,0,0,.186.838m-3.273.636h.758V180h1.028v2.255h.758v-2.868H147.4v2.868Zm-3.861-2.088a.647.647,0,0,1,.5-.228.64.64,0,0,1,.5.228.946.946,0,0,1,.2.649.973.973,0,0,1-.2.658.661.661,0,0,1-1,0,1.157,1.157,0,0,1,0-1.307m-.793,1.452a1.222,1.222,0,0,0,.543.524,1.67,1.67,0,0,0,.752.18,1.416,1.416,0,0,0,1.057-.427,1.482,1.482,0,0,0,.421-1.079,1.463,1.463,0,0,0-.414-1.07,1.427,1.427,0,0,0-1.066-.424,1.557,1.557,0,0,0-.764.186,1.274,1.274,0,0,0-.527.54,1.541,1.541,0,0,0-.186.732,1.721,1.721,0,0,0,.186.838m-2.457-.578h.389a1.764,1.764,0,0,1,.662.08.3.3,0,0,1,.17.292.287.287,0,0,1-.148.283,1.083,1.083,0,0,1-.472.077h-.6v-.729Zm0-1.166h.488a1.245,1.245,0,0,1,.524.077.272.272,0,0,1,.148.257.294.294,0,0,1-.157.279,1.074,1.074,0,0,1-.511.09H140.3v-.707Zm-.764,2.383h1.808a1.1,1.1,0,0,0,.726-.209.68.68,0,0,0,.247-.543.71.71,0,0,0-.148-.437.743.743,0,0,0-.443-.273.709.709,0,0,0,.234-1.217,1.284,1.284,0,0,0-.764-.186h-1.661v2.868ZM136.584,180h.919v2.255h.758V180h.919v-.613h-2.6Zm-.568-.453a1.381,1.381,0,0,0-.832-.225,1.333,1.333,0,0,0-1.015.4,1.544,1.544,0,0,0-.376,1.108,1.519,1.519,0,0,0,.376,1.1,1.323,1.323,0,0,0,1.005.4,1.365,1.365,0,0,0,.883-.263,1.327,1.327,0,0,0,.446-.774l-.745-.125a.748.748,0,0,1-.2.424.5.5,0,0,1-.353.122.557.557,0,0,1-.459-.212,1.153,1.153,0,0,1-.17-.723.99.99,0,0,1,.17-.655.564.564,0,0,1,.453-.2.482.482,0,0,1,.517.45l.748-.135a1.252,1.252,0,0,0-.443-.687M131.1,180h.919v2.255h.758V180h.919v-.613h-2.6Zm-2.92,2.255h.758v-1.2h1.086v1.2h.761v-2.868h-.761v1.05h-1.086v-1.05h-.758Zm-2.367-1.68a.7.7,0,0,1,.161-.491.545.545,0,0,1,.806-.01.735.735,0,0,1,.17.5h-1.134Zm.909,1.079a.463.463,0,0,1-.3.1.563.563,0,0,1-.437-.189.748.748,0,0,1-.183-.527h1.9a1.868,1.868,0,0,0-.353-1.294,1.275,1.275,0,0,0-1.012-.424,1.234,1.234,0,0,0-.944.4,1.593,1.593,0,0,0-.373,1.118,1.661,1.661,0,0,0,.283.989,1.283,1.283,0,0,0,1.108.488,1.353,1.353,0,0,0,.787-.218,1.24,1.24,0,0,0,.459-.633l-.758-.128a.621.621,0,0,1-.183.315m-3.7.6h.758V180h1.179v-.613H123.02Z" transform="translate(-76.946 -115.07)" fill="#014593"/>
    <path id="Контур_2286" data-name="Контур 2286" d="M111.17,178.533l.533-1.471.546,1.471Zm.967-2.393h-.845l-1.542,3.96h.848l.328-.9h1.583l.347.9h.87l-1.587-3.96Z" transform="translate(-67.731 -112.909)" fill="#014593"/>
    <path id="Контур_2287" data-name="Контур 2287" d="M111.17,178.533l.533-1.471.546,1.471Zm.967-2.393h-.845l-1.542,3.96h.848l.328-.9h1.583l.347.9h.87l-1.587-3.96Z" transform="translate(-67.731 -112.909)" fill="#014593"/>
    <g id="Сгруппировать_3133" data-name="Сгруппировать 3133" transform="translate(16.406 17.154)">
      <g id="Сгруппировать_3130" data-name="Сгруппировать 3130" transform="translate(0 0)">
        <path id="Контур_2288" data-name="Контур 2288" d="M31.394,36.939h2.345v-4.1H32.181l-.106,1.619a5.393,5.393,0,0,1-.681,2.486m4.227,2.531H34.452V37.957H30.745v1.506h-1.2l-.067-2.525h.466a2,2,0,0,0,.581-.919,6.46,6.46,0,0,0,.276-1.5l.177-2.711h4.028v5.129h.716l-.1,2.531Z" transform="translate(-29.48 -31.81)" fill="#fff"/>
        <path id="Контур_2289" data-name="Контур 2289" d="M51.361,38.872a1.7,1.7,0,0,0,.244,1,.881.881,0,0,0,1.394,0,1.865,1.865,0,0,0,.251-1.089A1.68,1.68,0,0,0,53,37.793a.811.811,0,0,0-.7-.35.8.8,0,0,0-.694.347,1.907,1.907,0,0,0-.244,1.082m-1.221-.087a2.674,2.674,0,0,1,.263-1.211,1.893,1.893,0,0,1,.755-.822A2.187,2.187,0,0,1,52.3,36.46a2.084,2.084,0,0,1,1.51.565,2.281,2.281,0,0,1,.652,1.538l.01.312a2.386,2.386,0,0,1-.588,1.686,2.277,2.277,0,0,1-3.154,0,2.431,2.431,0,0,1-.588-1.725v-.055Z" transform="translate(-43.504 -34.966)" fill="#fff"/>
        <path id="Контур_2290" data-name="Контур 2290" d="M68.929,36.72v4.57H67.708V37.706H66.632l-.077,1.413a3.225,3.225,0,0,1-.443,1.644,1.309,1.309,0,0,1-1.1.53h-.414l-.013-.983.151-.013a.561.561,0,0,0,.482-.389,3.979,3.979,0,0,0,.189-1.24l.084-1.943h3.443Z" transform="translate(-53.382 -35.143)" fill="#fff"/>
        <path id="Контур_2291" data-name="Контур 2291" d="M84.162,37.7H82.271v3.584H81.05V36.72h3.112Z" transform="translate(-64.596 -35.143)" fill="#fff"/>
        <path id="Контур_2292" data-name="Контур 2292" d="M92.7,38.872a1.7,1.7,0,0,0,.244,1,.881.881,0,0,0,1.394,0,1.865,1.865,0,0,0,.251-1.089,1.68,1.68,0,0,0-.251-.989.807.807,0,0,0-.7-.35.8.8,0,0,0-.694.347,1.906,1.906,0,0,0-.244,1.082m-1.221-.087a2.674,2.674,0,0,1,.263-1.211,1.874,1.874,0,0,1,.755-.822,2.183,2.183,0,0,1,1.14-.292,2.084,2.084,0,0,1,1.51.565,2.281,2.281,0,0,1,.652,1.538l.01.312a2.386,2.386,0,0,1-.588,1.686,2.273,2.273,0,0,1-3.151,0,2.431,2.431,0,0,1-.588-1.725v-.055Z" transform="translate(-71.701 -34.966)" fill="#fff"/>
        <path id="Контур_2293" data-name="Контур 2293" d="M108.791,40.2a.8.8,0,0,0,.549-.186.643.643,0,0,0,.218-.495H110.7a1.53,1.53,0,0,1-.254.851,1.717,1.717,0,0,1-.681.6,2.146,2.146,0,0,1-.957.212,1.985,1.985,0,0,1-1.545-.623,2.471,2.471,0,0,1-.565-1.722v-.08a2.437,2.437,0,0,1,.562-1.686,1.961,1.961,0,0,1,1.542-.63,1.936,1.936,0,0,1,1.375.485,1.728,1.728,0,0,1,.527,1.3h-1.143a.826.826,0,0,0-.218-.575.817.817,0,0,0-1.2.09,1.8,1.8,0,0,0-.218,1.009v.128a1.812,1.812,0,0,0,.215,1.015.748.748,0,0,0,.655.308" transform="translate(-82.064 -34.953)" fill="#fff"/>
        <path id="Контур_2294" data-name="Контур 2294" d="M124.234,38.769a1.8,1.8,0,0,0-.225-.986.737.737,0,0,0-.658-.347.8.8,0,0,0-.79.44v1.876a.814.814,0,0,0,.8.453q.872,0,.874-1.436m1.221.093a2.756,2.756,0,0,1-.479,1.693,1.539,1.539,0,0,1-1.294.636,1.428,1.428,0,0,1-1.121-.482v2.155H121.34V36.537h1.131l.042.446a1.438,1.438,0,0,1,1.156-.533,1.547,1.547,0,0,1,1.314.626,2.824,2.824,0,0,1,.469,1.722v.064Z" transform="translate(-92.034 -34.96)" fill="#fff"/>
        <path id="Контур_2295" data-name="Контур 2295" d="M137.131,38.872a1.7,1.7,0,0,0,.244,1,.881.881,0,0,0,1.394,0,1.865,1.865,0,0,0,.251-1.089,1.68,1.68,0,0,0-.251-.989.807.807,0,0,0-.7-.35.8.8,0,0,0-.694.347,1.907,1.907,0,0,0-.244,1.082m-1.221-.087a2.674,2.674,0,0,1,.263-1.211,1.893,1.893,0,0,1,.755-.822,2.187,2.187,0,0,1,1.143-.292,2.084,2.084,0,0,1,1.51.565,2.281,2.281,0,0,1,.652,1.538l.01.312a2.386,2.386,0,0,1-.588,1.686,2.277,2.277,0,0,1-3.154,0,2.431,2.431,0,0,1-.588-1.725v-.055Z" transform="translate(-101.957 -34.966)" fill="#fff"/>
        <path id="Контур_2296" data-name="Контур 2296" d="M155.361,41.29H154.14V39.855a3.56,3.56,0,0,1-.639.064,2.377,2.377,0,0,1-1.558-.44,1.6,1.6,0,0,1-.533-1.285V36.72h1.221v1.474a.744.744,0,0,0,.193.568,1.033,1.033,0,0,0,.674.17,3.018,3.018,0,0,0,.639-.071V36.72h1.221v4.57Z" transform="translate(-112.51 -35.143)" fill="#fff"/>
        <path id="Контур_2297" data-name="Контур 2297" d="M170.593,41.29h-1.227V39.537h-1.513V41.29H166.63V36.72h1.224v1.831h1.513V36.72h1.227Z" transform="translate(-122.874 -35.143)" fill="#fff"/>
        <path id="Контур_2298" data-name="Контур 2298" d="M188.166,41.29h-1.221V36.72h1.221Zm-4.779-2.245v1.262h.864a.821.821,0,0,0,.556-.167.566.566,0,0,0,.2-.456.607.607,0,0,0-.189-.466.807.807,0,0,0-.562-.173Zm0-.986h.874a2.544,2.544,0,0,1,1.037.2,1.485,1.485,0,0,1,.925,1.429,1.428,1.428,0,0,1-.533,1.163,2.21,2.21,0,0,1-1.455.44H182.16V36.72h1.224v1.339Z" transform="translate(-133.497 -35.143)" fill="#fff"/>
        <path id="Контур_2299" data-name="Контур 2299" d="M205.816,37.45a.748.748,0,0,0-.588.247,1.266,1.266,0,0,0-.289.7h1.7v-.1a.925.925,0,0,0-.218-.63.79.79,0,0,0-.6-.222m.138,3.755a2.237,2.237,0,0,1-1.635-.617,2.192,2.192,0,0,1-.633-1.644v-.119a2.759,2.759,0,0,1,.267-1.23,1.947,1.947,0,0,1,.755-.835,2.115,2.115,0,0,1,1.115-.292,1.884,1.884,0,0,1,1.474.591,2.4,2.4,0,0,1,.54,1.677v.5h-2.91a1.12,1.12,0,0,0,.357.716,1.082,1.082,0,0,0,.755.27,1.317,1.317,0,0,0,1.1-.511l.6.671a1.813,1.813,0,0,1-.745.607,2.44,2.44,0,0,1-1.037.218" transform="translate(-148.112 -34.973)" fill="#fff"/>
      </g>
      <g id="Сгруппировать_3131" data-name="Сгруппировать 3131" transform="translate(0.17 7.696)">
        <path id="Контур_2300" data-name="Контур 2300" d="M32.1,65.518a.8.8,0,0,0,.549-.186.643.643,0,0,0,.218-.495h1.143a1.538,1.538,0,0,1-.254.851,1.717,1.717,0,0,1-.681.6,2.146,2.146,0,0,1-.957.212,1.985,1.985,0,0,1-1.545-.623,2.456,2.456,0,0,1-.565-1.722v-.08a2.437,2.437,0,0,1,.562-1.686,1.956,1.956,0,0,1,1.542-.63,1.936,1.936,0,0,1,1.375.485,1.728,1.728,0,0,1,.527,1.3H32.872a.841.841,0,0,0-.218-.575.817.817,0,0,0-1.2.09,1.8,1.8,0,0,0-.218,1.009v.128a1.812,1.812,0,0,0,.215,1.015.748.748,0,0,0,.655.308" transform="translate(-30.01 -59.836)" fill="#fff"/>
        <path id="Контур_2301" data-name="Контур 2301" d="M46.432,59.02a.84.84,0,0,0-.681.292,1.469,1.469,0,0,0-.247.947,1.418,1.418,0,0,0,.241.89.83.83,0,0,0,.7.308.809.809,0,0,0,.684-.3,1.405,1.405,0,0,0,.244-.883v-.1a1.306,1.306,0,0,0-.247-.858.851.851,0,0,0-.691-.292m.231-.986a1.788,1.788,0,0,1,1.4.585,2.276,2.276,0,0,1,.524,1.583v.058a2.162,2.162,0,0,1-.581,1.583,2.089,2.089,0,0,1-1.567.594,2.027,2.027,0,0,1-1.574-.646,2.511,2.511,0,0,1-.585-1.75v-.2a4.846,4.846,0,0,1,.52-2.412,2.274,2.274,0,0,1,1.545-1.1,2.191,2.191,0,0,0,.7-.234.386.386,0,0,0,.157-.324h.989a1.3,1.3,0,0,1-.357,1,2.642,2.642,0,0,1-1.269.514,1.623,1.623,0,0,0-.854.427,1.663,1.663,0,0,0-.421.89,1.918,1.918,0,0,1,1.378-.565" transform="translate(-39.697 -55.77)" fill="#fff"/>
        <path id="Контур_2302" data-name="Контур 2302" d="M61.589,62.77a.764.764,0,0,0-.588.247,1.266,1.266,0,0,0-.289.7h1.7v-.1a.91.91,0,0,0-.218-.63.79.79,0,0,0-.6-.222m.138,3.755a2.237,2.237,0,0,1-1.635-.617,2.192,2.192,0,0,1-.633-1.644v-.119a2.759,2.759,0,0,1,.267-1.23,1.927,1.927,0,0,1,.755-.835,2.111,2.111,0,0,1,1.111-.292,1.9,1.9,0,0,1,1.477.591,2.4,2.4,0,0,1,.54,1.677v.5H60.7a1.12,1.12,0,0,0,.357.716,1.082,1.082,0,0,0,.755.27,1.317,1.317,0,0,0,1.1-.511l.6.671a1.824,1.824,0,0,1-.742.607,2.444,2.444,0,0,1-1.041.218" transform="translate(-50.001 -59.856)" fill="#fff"/>
        <path id="Контур_2303" data-name="Контур 2303" d="M77.431,64.089a1.8,1.8,0,0,0-.225-.986.735.735,0,0,0-.655-.347.8.8,0,0,0-.79.44v1.876a.809.809,0,0,0,.8.453c.585,0,.874-.479.874-1.436m1.221.093a2.756,2.756,0,0,1-.479,1.693,1.539,1.539,0,0,1-1.294.636,1.417,1.417,0,0,1-1.118-.482v2.155H74.54V61.857h1.131l.042.446a1.438,1.438,0,0,1,1.156-.533,1.547,1.547,0,0,1,1.314.626,2.824,2.824,0,0,1,.469,1.722v.064Z" transform="translate(-60.238 -59.843)" fill="#fff"/>
        <path id="Контур_2304" data-name="Контур 2304" d="M91.316,62.77a.759.759,0,0,0-.588.247,1.266,1.266,0,0,0-.289.7h1.7v-.1a.925.925,0,0,0-.218-.63.79.79,0,0,0-.6-.222m.138,3.755a2.237,2.237,0,0,1-1.635-.617,2.192,2.192,0,0,1-.633-1.644v-.119a2.759,2.759,0,0,1,.267-1.23,1.947,1.947,0,0,1,.755-.835,2.115,2.115,0,0,1,1.115-.292,1.884,1.884,0,0,1,1.474.591,2.4,2.4,0,0,1,.54,1.677v.5H90.43a1.12,1.12,0,0,0,.357.716,1.082,1.082,0,0,0,.755.27,1.317,1.317,0,0,0,1.1-.511l.6.671a1.813,1.813,0,0,1-.745.607,2.44,2.44,0,0,1-1.037.218" transform="translate(-70.182 -59.856)" fill="#fff"/>
        <path id="Контур_2305" data-name="Контур 2305" d="M108,64.908h-.552V66.6h-1.221V64.908h-.543l-.909,1.693H103.3l1.439-2.39-1.423-2.181h1.513l.951,1.709h.446V62.03h1.221v1.709h.456l.954-1.709h1.513l-1.413,2.152,1.452,2.419h-1.5Z" transform="translate(-79.76 -60.019)" fill="#fff"/>
        <path id="Контур_2306" data-name="Контур 2306" d="M128.589,62.77a.764.764,0,0,0-.588.247,1.266,1.266,0,0,0-.289.7h1.7v-.1a.91.91,0,0,0-.218-.63.79.79,0,0,0-.6-.222m.138,3.755a2.237,2.237,0,0,1-1.635-.617,2.192,2.192,0,0,1-.633-1.644v-.119a2.759,2.759,0,0,1,.267-1.23,1.927,1.927,0,0,1,.755-.835,2.111,2.111,0,0,1,1.111-.292,1.9,1.9,0,0,1,1.477.591,2.4,2.4,0,0,1,.54,1.677v.5H127.7a1.12,1.12,0,0,0,.357.716,1.082,1.082,0,0,0,.755.27,1.317,1.317,0,0,0,1.1-.511l.6.671a1.824,1.824,0,0,1-.742.607,2.444,2.444,0,0,1-1.041.218" transform="translate(-95.482 -59.856)" fill="#fff"/>
        <path id="Контур_2307" data-name="Контур 2307" d="M145.493,66.6h-1.227V64.847h-1.516V66.6H141.53V62.03h1.221v1.834h1.516V62.03h1.227Z" transform="translate(-105.711 -60.019)" fill="#fff"/>
        <path id="Контур_2308" data-name="Контур 2308" d="M159.563,62.03h1.22V66.6h-1.22V63.78l-1.526,2.82H156.81V62.03h1.227v2.817Z" transform="translate(-116.084 -60.019)" fill="#fff"/>
        <path id="Контур_2309" data-name="Контур 2309" d="M173.236,64.176h.838V63.023h-.793a.792.792,0,0,0-.527.17.52.52,0,0,0-.2.414.5.5,0,0,0,.193.4.77.77,0,0,0,.495.164m2.052-2.136v4.57h-1.214V65.03H173.3l-.877,1.58H171.19l1-1.786a1.515,1.515,0,0,1-.633-.514,1.276,1.276,0,0,1-.222-.739,1.349,1.349,0,0,1,.514-1.089,2.153,2.153,0,0,1,1.375-.44h2.072Z" transform="translate(-125.845 -60.026)" fill="#fff"/>
      </g>
      <g id="Сгруппировать_3132" data-name="Сгруппировать 3132" transform="translate(0.36 17.749)">
        <path id="Контур_2310" data-name="Контур 2310" d="M33.712,88.333H31.821V91.92H30.6V87.35h3.112Z" transform="translate(-30.6 -87.26)" fill="#fff"/>
        <path id="Контур_2311" data-name="Контур 2311" d="M43.124,90.879a1.045,1.045,0,0,0,.5-.119.8.8,0,0,0,.337-.324v-.787H43.5c-.61,0-.938.212-.976.633v.071a.479.479,0,0,0,.154.376.618.618,0,0,0,.44.148m1.009.848a1.325,1.325,0,0,1-.122-.411,1.474,1.474,0,0,1-1.153.495,1.626,1.626,0,0,1-1.115-.389,1.255,1.255,0,0,1-.44-.98,1.29,1.29,0,0,1,.54-1.115,2.653,2.653,0,0,1,1.558-.392h.562v-.26a.753.753,0,0,0-.164-.507.646.646,0,0,0-.514-.189.729.729,0,0,0-.485.148.5.5,0,0,0-.177.4H41.4a1.247,1.247,0,0,1,.244-.736,1.63,1.63,0,0,1,.694-.53,2.516,2.516,0,0,1,1.005-.193,2,2,0,0,1,1.343.424,1.483,1.483,0,0,1,.495,1.192v1.982a2.129,2.129,0,0,0,.183.983v.071H44.13Z" transform="translate(-37.863 -87.07)" fill="#fff"/>
        <path id="Контур_2312" data-name="Контур 2312" d="M59.221,89.409A1.8,1.8,0,0,0,59,88.423a.735.735,0,0,0-.655-.347.8.8,0,0,0-.79.44v1.876a.809.809,0,0,0,.8.453c.585,0,.874-.479.874-1.436m1.221.093a2.756,2.756,0,0,1-.479,1.693,1.539,1.539,0,0,1-1.294.636,1.417,1.417,0,0,1-1.118-.482V93.5H56.33V87.177h1.131l.042.446a1.438,1.438,0,0,1,1.156-.533,1.547,1.547,0,0,1,1.314.626,2.824,2.824,0,0,1,.469,1.722V89.5Z" transform="translate(-48.066 -87.084)" fill="#fff"/>
        <path id="Контур_2313" data-name="Контур 2313" d="M72.738,90.879a1.045,1.045,0,0,0,.5-.119.785.785,0,0,0,.337-.324v-.787h-.456c-.61,0-.935.212-.976.633v.071a.471.471,0,0,0,.157.376.618.618,0,0,0,.44.148m1.009.848a1.324,1.324,0,0,1-.122-.411,1.474,1.474,0,0,1-1.153.495,1.612,1.612,0,0,1-1.111-.389,1.244,1.244,0,0,1-.44-.98,1.3,1.3,0,0,1,.536-1.115,2.653,2.653,0,0,1,1.558-.392h.562v-.26a.753.753,0,0,0-.164-.507.646.646,0,0,0-.514-.189.729.729,0,0,0-.485.148.507.507,0,0,0-.173.4H71.02a1.226,1.226,0,0,1,.244-.736,1.63,1.63,0,0,1,.694-.53,2.516,2.516,0,0,1,1.005-.193,1.993,1.993,0,0,1,1.339.424,1.485,1.485,0,0,1,.5,1.192v1.982a2.177,2.177,0,0,0,.18.983v.071H73.746Z" transform="translate(-58.053 -87.07)" fill="#fff"/>
        <path id="Контур_2314" data-name="Контур 2314" d="M89.88,91.92H88.656V90.167H87.141V91.92H85.92V87.35h1.221v1.834h1.516V87.35H89.88Z" transform="translate(-68.267 -87.26)" fill="#fff"/>
        <path id="Контур_2315" data-name="Контур 2315" d="M104.27,88.333h-1.465V91.92h-1.224V88.333H100.14V87.35h4.13Z" transform="translate(-77.949 -87.26)" fill="#fff"/>
        <path id="Контур_2316" data-name="Контур 2316" d="M117.663,87.35h1.22v4.57h-1.22V89.1l-1.529,2.823H114.91V87.35h1.224v2.817Z" transform="translate(-88.005 -87.26)" fill="#fff"/>
        <path id="Контур_2317" data-name="Контур 2317" d="M133.074,89.409a1.8,1.8,0,0,0-.225-.986.737.737,0,0,0-.658-.347.8.8,0,0,0-.79.44v1.876a.814.814,0,0,0,.8.453q.872,0,.874-1.436m1.221.093a2.756,2.756,0,0,1-.479,1.693,1.539,1.539,0,0,1-1.294.636,1.428,1.428,0,0,1-1.121-.482V93.5H130.18V87.177h1.131l.042.446a1.438,1.438,0,0,1,1.156-.533,1.547,1.547,0,0,1,1.314.626,2.824,2.824,0,0,1,.469,1.722V89.5Z" transform="translate(-98.403 -87.084)" fill="#fff"/>
        <path id="Контур_2318" data-name="Контур 2318" d="M145.971,89.5a1.7,1.7,0,0,0,.244,1,.881.881,0,0,0,1.394,0,1.865,1.865,0,0,0,.251-1.089,1.68,1.68,0,0,0-.251-.989.811.811,0,0,0-.7-.35.8.8,0,0,0-.694.35,1.9,1.9,0,0,0-.244,1.079m-1.221-.087a2.675,2.675,0,0,1,.263-1.211,1.893,1.893,0,0,1,.755-.822,2.187,2.187,0,0,1,1.143-.292,2.084,2.084,0,0,1,1.51.565,2.281,2.281,0,0,1,.652,1.538l.01.312a2.386,2.386,0,0,1-.588,1.686,2.277,2.277,0,0,1-3.154,0,2.428,2.428,0,0,1-.588-1.722v-.055Z" transform="translate(-108.324 -87.084)" fill="#fff"/>
        <path id="Контур_2319" data-name="Контур 2319" d="M162.04,90.015v.912h.983c.43,0,.646-.148.646-.446s-.206-.459-.617-.463h-1.015Zm0-.819h.755c.427-.006.642-.141.642-.411a.382.382,0,0,0-.173-.353,1.054,1.054,0,0,0-.533-.106h-.687v.87ZM160.82,91.91V87.34h1.908a2.582,2.582,0,0,1,1.432.331,1.07,1.07,0,0,1,.5.947.87.87,0,0,1-.209.568,1.3,1.3,0,0,1-.61.385,1.447,1.447,0,0,1,.771.366.9.9,0,0,1,.279.668,1.11,1.11,0,0,1-.479.97,2.436,2.436,0,0,1-1.391.334h-2.2Z" transform="translate(-119.265 -87.253)" fill="#fff"/>
        <path id="Контур_2320" data-name="Контур 2320" d="M177.054,90.879a1.045,1.045,0,0,0,.5-.119.8.8,0,0,0,.337-.324v-.787h-.456c-.61,0-.938.212-.976.633v.071a.479.479,0,0,0,.154.376.618.618,0,0,0,.44.148m1.009.848a1.324,1.324,0,0,1-.122-.411,1.474,1.474,0,0,1-1.153.495,1.626,1.626,0,0,1-1.115-.389,1.255,1.255,0,0,1-.44-.98,1.29,1.29,0,0,1,.54-1.115,2.653,2.653,0,0,1,1.558-.392h.562v-.26a.753.753,0,0,0-.164-.507.646.646,0,0,0-.514-.189.729.729,0,0,0-.485.148.509.509,0,0,0-.177.4H175.33a1.247,1.247,0,0,1,.244-.736,1.63,1.63,0,0,1,.694-.53,2.516,2.516,0,0,1,1.005-.193,2,2,0,0,1,1.343.424,1.483,1.483,0,0,1,.495,1.192v1.982a2.129,2.129,0,0,0,.183.983v.071H178.06Z" transform="translate(-129.077 -87.07)" fill="#fff"/>
        <path id="Контур_2321" data-name="Контур 2321" d="M194.21,91.92h-1.224V90.167h-1.516V91.92H190.25V87.35h1.221v1.834h1.516V87.35h1.224Z" transform="translate(-139.349 -87.26)" fill="#fff"/>
        <path id="Контур_2322" data-name="Контур 2322" d="M211.776,91.92h-1.221V87.35h1.221Zm-4.782-2.245v1.262h.867a.821.821,0,0,0,.556-.167.576.576,0,0,0,.2-.456.607.607,0,0,0-.189-.466.812.812,0,0,0-.562-.173Zm0-.986h.874a2.533,2.533,0,0,1,1.037.2,1.485,1.485,0,0,1,.925,1.429,1.438,1.438,0,0,1-.533,1.163,2.21,2.21,0,0,1-1.455.44H205.77V87.35h1.224Z" transform="translate(-149.884 -87.26)" fill="#fff"/>
      </g>
    </g>
  </g>
</svg>
