<svg width="235" height="235" viewBox="0 0 235 235" fill="none" xmlns="http://www.w3.org/2000/svg">
<g clip-path="url(#clip0_529_2)">
<path d="M212.73 234.67H21.94C9.83 234.67 0 224.85 0 212.73V21.94C0 9.82 9.82 0 21.94 0H212.74C224.85 0 234.68 9.82 234.68 21.94V212.74C234.68 224.85 224.86 234.68 212.74 234.68" fill="#004A93"/>
<path d="M18.5547 201V172.191H21.0352V201H18.5547Z" fill="#0071E1"/>
<path d="M96.5547 201V172.191H99.0352V201H96.5547Z" fill="#0071E1"/>
<path d="M31.7233 196V177.111H35.8119V180.71H35.8457C36.544 178.119 38.0082 176.824 40.2384 176.824V181.538C39.8104 181.538 39.4499 181.549 39.1571 181.572C38.8642 181.594 38.4982 181.684 38.0589 181.842C37.6196 181.988 37.2648 182.197 36.9945 182.467C36.7242 182.737 36.4877 183.149 36.2849 183.7C36.0822 184.241 35.9808 184.894 35.9808 185.66V196H31.7233ZM42.3671 191.151V177.111H46.6247V190.746C46.6247 191.489 46.7993 192.063 47.1484 192.469C47.5088 192.863 48.0157 193.06 48.669 193.06C50.0318 193.06 50.7133 192.3 50.7133 190.779V177.111H54.9708V196H50.916V194.057C50.4655 194.891 49.9361 195.516 49.3279 195.932C48.7196 196.349 47.9706 196.558 47.0808 196.558C45.6842 196.558 44.5466 196.107 43.668 195.206C42.8008 194.305 42.3671 192.953 42.3671 191.151ZM57.5219 196V191.574H61.8471V196H57.5219ZM64.2293 202.302V177.111H68.4868V179.223C68.8022 178.39 69.2921 177.748 69.9567 177.297C70.6212 176.847 71.342 176.621 72.1192 176.621C73.5497 176.621 74.7323 177.061 75.6672 177.939C76.602 178.807 77.0694 180.13 77.0694 181.91V191.219C77.0694 192.942 76.5908 194.265 75.6334 195.189C74.6873 196.101 73.5159 196.558 72.1192 196.558C71.3083 196.558 70.5874 196.344 69.9567 195.916C69.3372 195.476 68.8472 194.834 68.4868 193.989V202.302H64.2293ZM68.4868 190.915C68.4868 191.647 68.6952 192.21 69.1119 192.604C69.5286 192.998 70.0242 193.195 70.5987 193.195C71.1844 193.195 71.6687 193.004 72.0516 192.621C72.4458 192.238 72.643 191.692 72.643 190.982V182.332C72.643 181.622 72.4458 181.076 72.0516 180.693C71.6687 180.31 71.1844 180.119 70.5987 180.119C70.0242 180.119 69.5286 180.316 69.1119 180.71C68.6952 181.104 68.4868 181.667 68.4868 182.4V190.915ZM79.0799 180.22V177.111H80.8708V175.202C80.8708 174.729 80.899 174.318 80.9553 173.969C81.0116 173.609 81.1299 173.231 81.3101 172.837C81.5016 172.443 81.7606 172.122 82.0873 171.874C82.4252 171.626 82.887 171.423 83.4726 171.266C84.0696 171.097 84.7736 171.012 85.5845 171.012H86.8854V174.374C86.1871 174.374 85.7197 174.453 85.4831 174.611C85.2466 174.769 85.1284 175.095 85.1284 175.591V177.111H87.0713V180.22H85.1284V196H80.8708V180.22H79.0799Z" fill="#0071E1"/>
<path d="M18.5953 132L40.9195 43.9533H63.3628L82.8891 132H64.7916L60.6839 109.08H41.753L36.5142 132H18.5953ZM43.8366 96.0431H58.6003L51.8733 55.0856L43.8366 96.0431ZM84.3178 132L106.642 43.9533H129.085L148.612 132H130.514L126.406 109.08H107.475L102.237 132H84.3178ZM109.559 96.0431H124.323L117.596 55.0856L109.559 96.0431ZM150.04 132L172.365 43.9533H194.808L214.334 132H196.237L192.129 109.08H173.198L167.959 132H150.04ZM175.282 96.0431H190.045L183.318 55.0856L175.282 96.0431Z" fill="white"/>
</g>
<defs>
<clipPath id="clip0_529_2">
<rect width="234.67" height="234.67" fill="white"/>
</clipPath>
</defs>
</svg>

