<svg width="485" height="289" viewBox="0 0 485 289" fill="none" xmlns="http://www.w3.org/2000/svg">
<path d="M50.4906 253.402C50.0089 251.27 51.0162 249.64 51.6021 247.985C54.3486 240.764 57.7439 233.996 61.1362 227.228C67.3384 215.345 73.7617 203.896 79.7575 192.214C84.1605 183.816 91.5494 169.258 91.9004 159.384C92.0704 157.919 92.0286 156.445 91.3583 155.146C90.9006 153.859 89.8127 152.747 88.1169 152.449C86.8495 152.382 85.8116 152.959 85.2079 153.979C84.3983 155.199 83.8003 156.431 83.2024 157.662C81.6154 161.156 79.8158 164.642 78.0167 168.125C70.6009 181.838 63.1794 195.34 55.9761 209.062C48.175 224.018 38.0487 246.219 37.9259 264.106C38.0462 268.322 39.9901 269.899 41.9096 270.631C44.8694 270.787 45.4971 270.609 47.3145 267.759L54.5599 255.511C58.7805 248.155 62.9949 240.588 67.419 233.032C76.0666 218.123 84.9172 203.01 95.0621 188.812C101.552 179.681 109.901 169.175 121.203 165.982C121.414 165.993 121.621 165.792 121.83 165.803C122.676 165.848 123.328 166.514 123.152 167.768C123.033 170.919 122.059 173.816 121.087 176.711C118.183 185.819 112.913 193.331 107.864 201.275C106.856 202.904 105.613 203.681 103.511 203.991C94.8731 204.378 87.5967 208.204 84.6621 216.259C84.0885 218.334 84.5608 220.042 85.6644 221.787C87.4201 224.194 90.2096 225.815 93.167 225.971C94.2252 226.027 95.0625 225.86 96.1144 225.704C104.058 223.177 110.453 218.042 115.547 211.784C116.972 209.964 118.632 209 121.161 208.922C144.954 207.231 158.406 190.678 171.212 173.671C172.025 172.662 172.001 171.818 171.134 170.93C170.476 170.055 169.83 169.598 169.196 169.564C168.562 169.531 167.728 169.91 167.113 170.509L164.673 173.746C153.715 188.957 142.424 199.939 123.355 204.406C123.143 204.395 122.937 204.596 122.727 204.584C122.303 204.562 121.875 204.328 121.441 203.885L127.225 192.191C130.026 186.866 131.337 181.041 131.797 174.961C131.937 172.443 131.665 170.323 130.758 168.169C129.37 163.886 125.489 160.944 121.476 160.733C120.418 160.677 119.581 160.844 118.528 161C116.645 161.532 114.773 162.485 112.902 163.438C104.196 168.874 97.6887 177.372 92.0183 185.702C77.0334 207.647 63.762 230.524 50.4906 253.402ZM101.548 209.151L101.56 209.572C98.717 213.422 95.01 216.596 90.8692 219.323C90.6632 219.524 90.4511 219.513 90.2415 219.502C90.0294 219.49 89.8172 219.479 89.6014 219.256C89.3773 218.825 89.1473 218.181 89.1354 217.758C89.6245 212.731 96.0673 209.282 100.468 208.251C101.102 208.285 101.53 208.519 101.548 209.151ZM162.848 183.755C163.114 185.663 163.802 187.594 164.9 189.126C166.68 192.378 169.469 193.999 172.639 194.166C173.694 194.222 174.746 194.066 175.796 193.91C186.682 190.906 196.384 176.051 202.228 166.466C206.659 166.488 210.668 166.491 215.105 166.725C215.363 168.422 214.55 169.43 213.94 170.241C205.196 181.779 196.405 191.63 199.397 207.785C199.93 211.602 203.225 216.197 207.238 216.408C207.872 216.442 208.506 216.475 209.133 216.299C214.174 215.511 219.693 209.278 222.754 205.65C229.27 197.362 235.79 189.287 242.094 180.987C242.908 179.979 244.737 177.549 244.695 176.072C244.883 175.242 244.443 174.587 244.013 174.353C243.585 174.119 243.157 173.888 242.733 173.865C241.677 173.81 238.417 177.847 237.807 178.658L229.281 190.416C225.013 196.086 220.744 201.756 215.614 206.746C213.766 208.543 211.707 210.329 209.208 211.46C209.002 211.661 208.58 211.638 208.158 211.616L207.734 211.594C207.518 211.371 207.076 210.716 207.276 210.307C207.434 208.42 207.802 206.545 208.169 204.67C212.361 188.892 221.707 183.701 223.059 171.985C223.585 168.224 222.041 165.828 219.028 163.774C217.526 162.852 216.041 162.562 214.561 162.484C211.603 162.328 208.862 162.395 206.123 162.462L204.431 162.373C205.041 161.562 205.435 160.531 205.832 159.709C213.846 144.764 206.335 140.368 200.421 140.056C199.787 140.022 199.369 140.211 198.735 140.178C179.791 141.705 179.716 161.278 191.856 165.287C193.136 165.775 194.834 166.076 196.951 166.399L194.12 170.67C190.273 176.36 180.089 189.084 172.536 190.58C172.115 190.558 171.909 190.759 171.487 190.737C170.219 190.67 169.561 189.792 169.095 188.296C168.347 184.256 169.736 181.172 171.548 178.11C173.371 175.468 175.201 173.039 178.791 173.228C179.216 173.251 179.838 172.863 179.826 172.442C180.223 171.62 179.783 170.965 179.138 170.511C177.398 168.734 175.262 167.781 173.149 167.67C170.825 167.547 168.536 168.689 166.694 170.696C163.633 174.323 162.282 178.672 162.848 183.755ZM201.809 144.341C203.286 144.418 204.356 144.895 204.398 146.372L204.422 147.213C204.16 152.886 201.975 157.611 199.366 162.314C196.837 162.392 194.301 162.259 192.824 162.181L191.556 162.114C187.269 159.782 190.627 144.382 201.809 144.341ZM287.305 168.427C286.871 167.984 286.435 167.538 286.213 167.106C282.248 161.213 277.098 158.205 270.76 157.87C252.378 156.9 240.756 171.024 234.426 185.846C233.242 188.73 232.489 191.848 232.155 194.988C231.866 199.605 233.242 203.466 236.929 207.03C238.885 209.027 241.235 209.992 243.345 210.103C245.038 210.192 246.715 209.86 248.375 208.896C249.624 208.331 250.658 207.543 251.69 206.754C254.159 204.569 256.634 202.594 258.892 200.398L280.242 179.633C282.705 177.236 292.798 168.716 296.601 168.917C297.025 168.939 297.234 168.95 297.665 169.185C298.957 170.093 298.159 171.737 297.773 172.979C294.215 188.788 284.638 208.072 276.807 221.972C275.6 224.014 274.162 225.413 272.086 226.566C265.01 229.982 257.94 233.607 250.654 237.012C239.835 242.336 224.471 250.999 217.811 261.595C215.608 265.688 214.882 269.859 214.803 274.487C215.019 282.076 222.16 288.348 229.557 288.738C254.277 290.042 280.396 244.264 290.124 222.886C291.12 220.832 292.551 219.225 294.623 217.859C309.95 207.932 319.436 200.223 330.388 184.804L332.2 181.742C332.598 180.92 332.573 180.076 331.709 179.398C331.276 178.955 330.848 178.722 330.424 178.699C330.002 178.677 329.374 178.855 328.97 179.465C328.155 180.474 327.141 181.895 326.331 183.115C318.404 193.644 309.824 203.505 298.419 210.481C298.009 210.883 297.394 211.482 296.76 211.448C296.338 211.426 296.126 211.415 295.692 210.969L299.189 200.418C301.338 194.428 303.059 188.203 304.352 181.745C304.89 178.407 305.003 175.044 304.704 171.87C304.595 168.075 300.714 165.133 297.12 164.944C295.852 164.877 294.597 165.234 293.341 165.587C291.254 166.32 289.176 167.474 287.305 168.427ZM275.787 164.03C278.956 164.197 281.322 165.797 282.458 168.591C282.922 170.09 283.17 171.366 281.733 172.765C273.515 180.541 265.305 188.527 257.094 196.515C254.221 199.309 250.918 201.872 247.387 203.792L245.091 204.723C244.887 204.923 244.463 204.901 244.254 204.89C243.62 204.856 243.183 204.411 243.159 203.569C245.034 187.88 256.673 167.023 273.685 164.34C274.531 164.384 275.372 164.22 275.787 164.03ZM270.563 232.379C264.839 246.181 243.496 274.525 228.94 281.967C227.487 282.734 226.231 283.088 225.385 283.043C223.483 282.943 222.392 281.622 221.046 278.816C219.682 275.375 219.586 272.002 220.539 268.474C223.42 258.522 233.127 251.244 241.423 246.209C250.128 240.773 259.716 236.65 269.086 232.3C269.289 232.103 269.72 232.334 270.563 232.379ZM358.557 173.868C358.533 173.026 358.261 170.906 357.989 168.786C356.522 161.762 350.831 154.515 343.225 154.114C339.844 153.936 336.711 155.033 334.453 157.231C331.796 160.249 329.99 163.52 329.477 167.705C329.328 169.8 329.597 171.92 329.87 174.041C330.118 175.317 329.936 176.359 328.904 177.147C322.118 183.313 315.77 197.503 314.551 206.492C314.014 209.832 314.326 213.426 316.108 216.678C318.57 221.649 322.233 224.368 326.036 224.568C328.571 224.702 331.077 223.782 333.77 222.03L335.008 221.044C341.618 216.129 346.72 210.083 350.519 202.705C351.326 201.484 351.924 200.253 352.522 199.022C352.916 197.991 353.966 197.834 355.021 197.89C357.147 198.422 359.701 199.189 361.814 199.3C371.744 199.824 383.547 192.028 389.241 184.539C389.845 183.519 389.175 182.22 387.683 181.719C386.837 181.674 386.203 181.641 385.372 182.02C384.128 182.795 383.312 183.806 382.287 184.803C376.338 190.805 368.045 195.84 359.171 195.372C354.1 195.104 354.498 194.285 356.243 188.902C357.8 184.355 358.732 179.984 358.557 173.868ZM350.012 192.363C347.893 192.042 346.385 190.908 344.663 189.766C339.496 186.124 339.472 185.283 343.355 180.855L345.6 178.236C347.02 176.208 346.777 175.141 344.828 173.355C343.096 171.789 341.177 171.057 339.275 170.956C338.429 170.912 337.795 170.878 336.958 171.046L336.118 171.213C335.062 171.157 334.614 170.29 335.002 169.048C335.756 165.93 337.151 163.057 339.402 160.65C341.462 158.864 343.333 157.909 345.235 158.009C347.982 158.154 350.36 160.174 351.942 163.837C354.185 168.585 354.748 173.458 354.252 178.273C353.345 183.488 352.203 187.849 350.012 192.363ZM324.764 216.923C324.746 216.291 324.928 215.249 325.313 214.006C327.205 206.316 330.379 199.328 334.196 192.582C334.594 191.761 336.605 188.289 337.661 188.345C338.085 188.367 338.513 188.599 339.159 189.055C341.542 191.285 344.126 193.106 347.127 194.737C348.623 195.447 348.859 196.302 348.267 197.745C344.498 206.177 339.222 213.476 331.138 218.522L328.651 220.077C327.817 220.453 327.195 220.84 326.352 220.796C326.139 220.785 325.922 220.564 325.712 220.554C324.854 220.085 324.618 219.232 324.764 216.923ZM384.065 202.791C385.573 203.922 387.071 204.633 388.551 204.711C391.72 204.878 395.433 201.916 397.274 199.908C400.141 196.901 402.368 193.652 404.808 190.412C410.062 182.268 415.532 174.347 421.002 166.425C422.022 165.216 427.498 157.507 428.978 157.585C429.188 157.596 429.406 157.816 429.618 157.827C428.832 159.892 428.258 161.967 427.257 163.809C424.878 169.156 423.566 174.982 422.889 180.841C422.375 185.023 423.335 189.074 426.601 192.613C428.123 194.168 429.409 194.867 430.886 194.945C432.154 195.012 433.409 194.658 434.653 193.88C436.937 192.526 438.778 190.52 440.619 188.511C445.516 182.666 450.207 177.018 455.321 171.393C455.549 172.037 455.561 172.46 455.369 173.081C454.359 174.711 453.352 176.341 452.554 177.985C449.529 182.878 446.722 187.99 444.555 193.351C440.207 203.646 438.196 214.487 439.37 226.125C439.927 230.786 442.003 237 447.707 237.301C449.185 237.378 450.646 236.824 452.096 235.849C457.493 232.764 464.176 223.013 467.407 217.922L483.13 192.228C483.734 191.206 484.332 189.974 484.93 188.742C485.124 188.121 484.899 187.689 484.466 187.246C484.248 187.023 483.817 186.789 483.183 186.756L482.549 186.722C481.712 186.89 481.096 187.489 480.696 188.31C479.279 190.339 478.077 192.593 476.658 194.621C470.632 205.251 464.19 216.067 456.654 225.565C455.025 227.582 453.178 229.379 451.324 230.967C450.708 231.567 450.099 232.374 449.253 232.33L448.619 232.297C447.339 231.809 447.719 230.355 447.695 229.513C447.647 227.824 447.592 225.927 447.757 224.253C449.943 212.158 452.05 204.691 456.79 193.365C458.356 189.027 460.131 184.7 461.7 180.571C462.677 177.887 463.233 175.179 463.789 172.471C464.129 169.543 463.005 167.169 461.073 166.013C460.217 165.547 459.578 165.302 458.944 165.269C455.562 165.091 449.844 171.736 447.805 174.154C444.738 177.573 441.886 181.212 438.819 184.627C437.184 186.436 435.337 188.233 433.489 190.03C433.08 190.428 432.464 191.028 431.617 190.983C431.405 190.972 431.196 190.961 430.766 190.729C430.114 190.063 430.296 189.018 430.484 188.188C432.737 178.412 435.429 169.292 438.956 159.794C439.329 158.131 439.915 156.476 440.079 154.801C440.405 151.45 437.588 148.775 434.628 148.619C431.459 148.452 427.97 151.848 426.128 153.854C422.843 157.05 419.988 160.48 417.355 164.339C412.707 171.463 407.846 178.573 403.204 185.907C400.771 189.356 398.547 192.819 395.686 196.034C394.248 197.433 390.753 200.618 388.64 200.506C388.006 200.473 387.354 199.807 387.33 198.963C387.192 194.115 389.367 188.966 392.644 185.561L394.492 183.764C394.898 183.154 394.668 182.51 394.228 181.855C393.358 180.967 392.284 180.279 391.01 180L389.525 179.713C382.974 179.367 378.971 186.943 378.922 192.624C378.832 196.831 380.824 200.094 384.065 202.791Z" fill="#B7422C"/>
<path d="M273.644 100.311C273.186 100.086 272.737 100.086 272.286 100.086C270.264 100.086 267.979 104.355 267.373 105.928C260.29 118.734 252.565 132.212 242.229 142.547C241.163 143.894 239.677 145.918 237.88 145.918C237.655 145.918 237.204 145.917 236.971 145.692C234.897 144.57 235.22 141.648 235.121 139.402C234.854 133.337 235.74 127.945 237.069 122.328C239.166 113.791 241.939 105.255 244.497 96.941C246.068 91.7746 247.873 86.8312 248.761 81.4396C249.278 77.8458 247.595 75.3744 244.585 73.3513C243.43 72.6777 242.521 72.4525 241.398 72.4525C240.05 72.4525 238.719 72.9029 237.419 74.0252C236.1 74.7008 235.015 75.5975 233.941 76.7219C230.268 80.0925 226.839 83.9115 223.877 88.1787L205.053 115.139C203.148 117.835 201.018 120.53 198.88 123.002C197.814 124.349 196.289 125.473 194.755 126.372C194.325 126.821 193.651 126.821 193.201 126.821C192.526 126.821 191.823 126.147 191.548 125.025C190.745 122.103 191.301 119.408 192.083 116.711C193.44 111.768 195.95 107.501 200.328 104.804C201.208 104.355 201.853 103.682 201.802 102.557C201.518 101.21 200.375 100.76 199.456 100.311C198.088 99.8628 196.964 99.8629 195.615 99.8629C192.916 99.8629 190.259 100.76 188.097 102.783C182.481 107.949 182.134 120.53 187.121 126.598C188.336 128.619 191.092 129.966 193.35 130.191C196.497 130.191 198.472 129.067 200.63 127.046C203.65 124.126 205.984 120.981 208.31 117.61C215.097 108.4 221.665 99.1873 228.461 90.2019C230.162 87.9556 235.048 81.4396 238.166 80.766C237.588 83.0123 236.79 85.2585 235.989 87.5052C231.936 97.6145 228.567 107.949 227.029 118.958C226.229 126.372 226.564 134.01 228.475 141.648C229.776 145.692 233.131 150.41 237.853 150.41C239.201 150.41 240.755 149.962 242.064 149.063C247.771 145.918 257.08 132.663 260.216 127.271L271.528 108.399C272.582 106.827 273.403 105.029 274.224 103.231C274.838 101.884 274.564 100.76 273.644 100.311ZM279.563 107.05C280.951 107.949 281.889 108.848 282.81 109.299C284.882 110.421 286.936 111.094 289.184 111.094C297.726 111.094 304.505 101.659 307.806 94.9195C308.617 92.8964 308.764 91.1006 308.664 88.8543C308.427 83.461 301.544 80.3156 296.823 80.3156C295.923 80.3156 295.026 80.3156 294.136 80.5408C282.738 82.1135 276.32 89.5283 270.185 98.2901C265.555 105.478 262.762 113.566 263.373 122.328C264.004 136.707 275.688 146.817 289.627 146.817C301.317 146.817 316.072 134.684 323.596 126.821C328.969 121.204 334.547 115.139 339.913 109.299C341.406 107.501 342.453 105.703 343.723 103.905C344.368 103.231 344.552 102.332 343.839 101.436C343.358 100.76 342.439 100.311 341.316 100.311C341.091 100.311 340.642 100.311 340.201 100.536C339.331 101.21 338.696 102.109 337.826 102.783C328.858 113.566 304.503 142.547 288.991 142.547C284.271 142.547 278.814 141.2 276.8 136.257C275.312 133.112 274.275 129.966 274.575 126.598C274.953 119.857 276.018 113.341 279.563 107.05ZM300.872 85.4837C303.122 85.4837 304.068 86.606 304.157 88.6291C304.176 89.0775 304.186 89.3031 303.982 89.7514C302.081 97.6145 297.85 103.682 290.364 107.276C289.035 107.726 287.694 107.949 286.121 107.949C282.72 107.276 281 103.905 282.444 100.985C285.558 95.1448 293.229 85.4837 300.872 85.4837ZM354.012 72.0038C354.304 73.5765 355.039 74.924 356.201 75.8227C356.436 76.0483 356.904 76.4967 357.355 76.4967C357.355 76.4967 357.579 76.4967 357.794 76.2735C358.226 75.8227 358.429 75.3744 358.635 74.924C359.476 73.5765 358.069 72.229 358.427 70.2063C364.048 70.2063 366.764 70.6567 372.455 72.229C379.299 74.4756 385.925 76.9471 392.781 79.4186C397.12 80.9913 401.637 81.4396 406.133 81.4396C408.155 81.4396 410.18 81.4396 412.193 81.2144C415.32 80.7661 417.725 79.1933 418.711 76.0483C419.111 74.924 419.062 73.8017 418.348 72.9029C418.103 72.4525 417.625 71.7786 417.174 71.7786C416.725 71.7786 416.081 72.4526 416.09 72.6778C415.983 75.3744 414.664 76.0483 412.191 76.0483C405.896 76.0483 399.826 76.0484 393.872 73.5765C386.548 70.6567 379.227 67.7344 371.485 65.4882C368.297 64.5894 364.895 63.9155 361.514 63.6924C356.793 63.6924 353.589 67.5113 354.012 72.0038ZM327.239 143.221C327.805 145.918 329.673 147.49 332.188 148.389C332.646 148.612 333.32 148.612 333.771 148.612C335.568 148.612 337.103 147.715 338.157 146.143C339.848 143.671 341.548 141.425 343.002 138.728C350.719 125.025 358.416 110.871 368.224 98.7385C369.641 100.311 368.803 101.659 368.197 103.231C365.62 111.094 362.582 118.734 360.924 127.046C359.978 131.09 359.491 135.358 359.913 139.852C360.297 143.446 363.662 148.389 367.709 148.389C368.832 148.389 369.927 147.715 370.999 146.591C372.936 144.57 374.411 142.322 375.885 140.075L388.261 119.857C390.362 116.486 400.706 101.21 404.01 99.6376C404.518 100.985 403.658 101.884 403.248 102.783C398.033 111.993 394.215 122.328 393.565 133.111C393.449 135.583 393.792 138.28 394.574 140.749C396.169 146.366 400.355 149.511 405.076 149.511C412.271 149.511 422.595 138.734 427.101 134.01C427.777 133.301 428.465 132.596 429.082 131.838C431.259 129.171 427.051 125.959 424.57 128.681C418.621 135.215 412.159 141.349 406.638 144.12C406.013 144.433 405.327 145.019 404.653 145.019C404.43 145.019 403.969 144.794 403.511 144.57C402.052 142.099 402.842 139.627 403.175 136.93C404.081 131.989 405.427 126.821 407.468 122.103C409.89 115.812 412.772 109.747 415.418 103.457C416.63 100.311 417.841 97.1662 418.824 94.0208C419.567 90.4271 417.874 87.7304 414.239 86.8312C413.778 86.606 413.104 86.606 412.655 86.606C411.306 86.606 409.976 87.0564 408.892 87.9556C406.037 89.5283 403.665 91.7746 401.29 94.0208C398.076 97.6145 395.095 101.436 392.342 105.254C386.186 113.566 380.737 122.553 375.05 131.315C373.996 132.886 373.186 134.909 370.978 135.808C370.829 132.438 372.05 129.518 372.82 126.598C374.772 119.857 376.939 112.892 379.117 106.153C379.889 103.231 380.209 100.311 380.071 97.1662C379.913 93.5725 376.371 89.7514 372.55 89.7514C370.976 89.7514 369.669 90.6502 368.36 91.5493C364.45 94.6943 361.275 99.1872 358.541 103.457L345.753 124.574C344.932 126.372 343.274 129.518 339.697 135.134C342.275 127.271 345.136 120.755 345.732 118.958C348.162 112.892 350.359 106.602 351.646 100.086C352.183 96.941 352.495 93.7956 352.133 90.6502C351.545 87.5052 349.677 85.9325 346.939 85.0333C346.716 85.0333 346.48 84.8102 346.255 84.8102C345.132 84.8102 344.037 85.4838 343.627 86.3829C343.431 87.0565 343.451 87.5052 343.245 87.9556C340.922 96.4922 337.691 104.804 334.224 112.892C331.157 119.857 328.775 127.046 327.302 134.459C326.757 137.381 326.435 140.301 327.239 143.221Z" fill="#B7422C"/>
<path d="M67.8734 70.5452C67.7944 68.7473 69.0932 67.6229 69.9434 66.5006C79.3431 55.2673 89.3838 38.1936 91.4212 23.1409C92.0228 16.3997 89.744 10.5597 84.5901 5.84205C79.6814 1.5727 73.7683 0 67.6968 0C51.2853 0 28.7242 18.648 26.552 35.7217C26.2986 40.2146 27.5912 44.0336 30.6515 47.1786C32.5297 48.9765 35.0421 49.8757 37.5157 49.8757C40.6628 49.8757 43.9647 48.3029 45.6356 45.3827C45.6257 45.1575 45.6158 44.9323 45.8411 44.9323C45.8014 44.0336 44.8723 43.3596 43.9729 43.3596C43.2989 43.3596 42.8598 43.5848 42.4289 44.0336C40.8849 44.7071 39.5757 45.6063 38.0218 46.0567C37.3577 46.2798 36.4678 46.505 36.0171 46.505C33.5456 46.505 32.1265 44.9323 31.5492 42.0126C31.235 39.9894 31.1366 37.7432 31.7316 35.9469C37.1816 21.7934 54.5053 6.7408 70.6914 6.7408C72.7139 6.7408 74.5229 6.96392 76.3415 7.41474C80.448 8.76182 81.4165 10.3345 81.3788 14.6039C80.4365 28.9809 64.7767 51.2231 56.0038 61.3325C54.7149 62.6816 53.3942 63.3556 51.8204 63.3556C51.5967 63.3556 51.136 63.1304 50.6874 63.1304C47.5104 62.4564 44.3629 62.4564 40.9903 62.4564C36.5042 62.6816 32.2617 63.3556 28.0799 65.3766C21.9233 68.522 20.8689 75.2628 25.8268 80.6545C30.7851 86.0461 34.3929 86.2714 40.6881 86.2714C44.0391 85.821 47.147 84.9218 50.0018 83.3491C53.7444 81.5533 57.0165 79.3049 60.2811 76.8355C62.246 75.486 63.3298 74.5873 64.2292 74.5873C68.0508 74.5873 71.3022 87.168 71.4796 91.2126C72.4104 97.0543 71.9832 102.671 71.1148 108.511C70.7646 110.758 69.4736 112.107 67.4806 112.781C47.0535 118.621 5.1847 132.774 0.406262 157.038C-0.891311 163.328 0.919413 168.722 5.83803 173.214C11.2152 177.932 17.3359 179.055 23.8544 179.055C52.1119 177.482 80.2086 141.537 83.0415 113.903C83.3938 111.656 84.4574 110.309 86.4426 109.41C103.837 101.099 113.707 95.482 124.453 79.0818C124.873 78.4083 125.068 77.7327 124.365 77.0587C123.884 76.3851 122.732 75.7112 122.058 75.7112C121.832 75.7112 121.616 75.9364 121.391 75.9364C120.952 76.1599 120.298 76.6104 119.877 77.2839C118.597 78.8566 117.093 80.4293 116.039 82.002C108.595 91.663 98.7919 98.8522 87.5442 103.793L85.5511 104.467H84.875C84.4263 104.467 83.9678 104.244 83.938 103.57C83.6535 102.221 83.5944 100.874 83.5352 99.5261C82.3084 86.9449 76.791 79.0818 67.8734 70.5452ZM42.0675 66.5006C44.3153 66.5006 45.8891 66.5006 47.4923 67.1745C48.1762 67.3997 48.6765 68.522 48.2452 68.9724C44.807 72.5662 37.2643 79.9805 31.6435 79.9805C30.2951 79.9805 29.1505 79.5301 28.2015 78.4083C26.784 76.8356 26.8812 73.9133 28.1308 71.667C30.8852 67.8481 37.5715 66.5006 42.0675 66.5006ZM15.9052 172.09C9.38464 172.09 6.80315 169.619 5.62922 163.328C5.07967 161.082 5.20662 158.835 5.7818 156.589C11.0424 138.166 38.4369 127.158 55.0503 121.543C58.5894 120.194 62.1361 119.071 65.4598 117.947C65.8985 117.722 66.1239 117.722 66.5725 117.722C67.0236 117.722 67.4723 117.722 67.7175 118.172C68.4213 118.846 68.002 119.52 67.806 120.194C59.2618 140.637 48.0075 155.69 28.7366 167.372C25.0134 169.619 20.4008 172.09 15.9052 172.09Z" fill="#B7422C"/>
<path d="M187.295 31.6247C187.382 28.4797 186.774 24.8839 185.726 21.5154C181.616 9.83126 172.143 3.99127 160.228 3.99127C144.939 3.99127 131.913 14.5493 124.364 26.907C116.384 39.7113 113.643 54.0901 114.314 69.3679C115.869 74.086 114.034 78.3533 112.198 82.6227L111.357 83.9702C107.95 93.406 105.901 103.067 106.131 113.402C106.576 123.511 111.8 134.968 123.49 134.968C131.584 134.968 140.505 128.229 145.644 122.387C147.578 120.366 149.553 119.242 151.8 119.242C152.926 119.242 154.058 119.467 155.426 119.916C159.299 121.039 163.141 121.488 166.962 121.488C174.711 121.488 182.6 119.363 189.908 115.783L186.142 112.773C179.608 115.854 172.523 117.669 165.221 117.669C161.848 117.669 158.232 117.22 154.594 116.322C153.226 115.873 152.971 115.197 153.812 113.85L158.462 107.111C171.581 88.4627 188.371 56.1132 187.295 31.6247ZM182.973 30.5008C183.524 37.9155 182.237 44.4291 180.285 51.1703C174.672 71.8394 165.61 90.711 153.096 107.785C152.891 108.233 152.462 108.684 152.031 109.132C149.472 112.278 148.642 113.85 147.291 113.85C139.423 113.85 129.349 99.4712 125.682 92.732C124.694 90.711 124.615 88.9131 125.649 86.89C130.776 75.6583 143.573 54.764 155.242 49.1472C157 48.2501 156.94 46.9005 155.317 45.7786C153.684 44.4291 151.857 43.7555 149.6 43.5324C143.979 43.5324 139.786 45.3282 135.438 48.6984C131.11 52.5174 127.035 57.0103 123.646 61.728C123.009 62.6271 122.375 63.5259 121.73 64.1998C121.301 64.6502 120.88 65.3238 120.411 64.8734C119.941 64.425 119.911 63.7511 119.892 63.3007L119.872 62.8523C121.279 38.5891 136.819 8.48375 164.246 8.48375C165.369 8.48375 166.72 8.48376 167.853 8.70896C174.412 9.60812 178.853 13.4271 181.151 19.7175C182.434 23.3112 183.276 27.1302 182.973 30.5008ZM144.723 116.77C143.131 121.488 129.372 130.7 123.322 131.149C118.15 131.149 117.358 128.452 117.17 124.185C116.766 114.974 118.854 106.212 121.627 97.6753C121.823 97.0018 122.261 96.7762 122.712 96.7762C123.161 96.7762 123.387 96.7762 123.631 97.2249C124.345 98.1237 125.059 99.0228 125.547 99.9216C130.331 106.437 135.747 112.052 142.875 115.648C143.558 115.873 144.029 116.322 144.723 116.77Z" fill="#B7422C"/>
</svg>

