<svg id="calculator" xmlns="http://www.w3.org/2000/svg" width="58.162" height="61.216" viewBox="0 0 58.162 61.216">
  <path id="Path_745" data-name="Path 745" d="M67.265,61.216h-53.9a2.092,2.092,0,0,1-2.13-2.13V2.13A2.092,2.092,0,0,1,13.363,0h53.9A2.092,2.092,0,0,1,69.4,2.13V59.085A2.092,2.092,0,0,1,67.265,61.216Zm-53.9-2.13h53.9V2.13h-53.9Z" transform="translate(-11.233)" fill="#a0371e"/>
  <path id="Path_746" data-name="Path 746" d="M106.447,60.778H67.175a2.092,2.092,0,0,1-2.13-2.13V50.2a2.092,2.092,0,0,1,2.13-2.13h39.272a2.092,2.092,0,0,1,2.13,2.13v8.451A2.092,2.092,0,0,1,106.447,60.778Zm-39.272-2.13h39.272V50.2H67.175Z" transform="translate(-57.73 -41.532)" fill="#a0371e"/>
  <g id="Group_56" data-name="Group 56" transform="translate(7.315 21.163)">
    <path id="Path_747" data-name="Path 747" d="M75.626,166.13H67.175a2.092,2.092,0,0,1-2.13-2.13v-6.178a2.092,2.092,0,0,1,2.13-2.13h8.451a2.092,2.092,0,0,1,2.13,2.13V164A2.092,2.092,0,0,1,75.626,166.13ZM67.175,164h8.451v-6.178H67.175Z" transform="translate(-65.045 -155.691)" fill="#a0371e"/>
    <path id="Path_748" data-name="Path 748" d="M75.626,251.289H67.175a2.092,2.092,0,0,1-2.13-2.13V242.98a2.092,2.092,0,0,1,2.13-2.13h8.451a2.092,2.092,0,0,1,2.13,2.13v6.178A2.092,2.092,0,0,1,75.626,251.289Zm-8.451-2.13h8.451V242.98H67.175Z" transform="translate(-65.045 -229.274)" fill="#a0371e"/>
    <path id="Path_749" data-name="Path 749" d="M75.626,335.926H67.175a2.092,2.092,0,0,1-2.13-2.13v-6.178a2.092,2.092,0,0,1,2.13-2.13h8.451a2.092,2.092,0,0,1,2.13,2.13V333.8A2.092,2.092,0,0,1,75.626,335.926Zm-8.451-2.13h8.451v-6.178H67.175Z" transform="translate(-65.045 -302.407)" fill="#a0371e"/>
    <path id="Path_750" data-name="Path 750" d="M188.476,166.13h-8.451a2.092,2.092,0,0,1-2.13-2.13v-6.178a2.092,2.092,0,0,1,2.13-2.13h8.451a2.092,2.092,0,0,1,2.13,2.13V164A2.092,2.092,0,0,1,188.476,166.13ZM180.025,164h8.451v-6.178h-8.451Z" transform="translate(-162.555 -155.691)" fill="#a0371e"/>
    <path id="Path_751" data-name="Path 751" d="M188.476,251.289h-8.451a2.092,2.092,0,0,1-2.13-2.13V242.98a2.092,2.092,0,0,1,2.13-2.13h8.451a2.092,2.092,0,0,1,2.13,2.13v6.178A2.092,2.092,0,0,1,188.476,251.289Zm-8.451-2.13h8.451V242.98h-8.451Z" transform="translate(-162.555 -229.274)" fill="#a0371e"/>
    <path id="Path_752" data-name="Path 752" d="M188.476,335.926h-8.451a2.092,2.092,0,0,1-2.13-2.13v-6.178a2.092,2.092,0,0,1,2.13-2.13h8.451a2.092,2.092,0,0,1,2.13,2.13V333.8A2.092,2.092,0,0,1,188.476,335.926Zm-8.451-2.13h8.451v-6.178h-8.451Z" transform="translate(-162.555 -302.407)" fill="#a0371e"/>
    <path id="Path_753" data-name="Path 753" d="M301.847,166.13H293.4a2.092,2.092,0,0,1-2.13-2.13v-6.178a2.092,2.092,0,0,1,2.13-2.13h8.451a2.092,2.092,0,0,1,2.13,2.13V164A2.092,2.092,0,0,1,301.847,166.13ZM293.4,164h8.451v-6.178H293.4Z" transform="translate(-260.516 -155.691)" fill="#a0371e"/>
    <path id="Path_754" data-name="Path 754" d="M301.847,251.289H293.4a2.092,2.092,0,0,1-2.13-2.13V242.98a2.092,2.092,0,0,1,2.13-2.13h8.451a2.092,2.092,0,0,1,2.13,2.13v6.178A2.092,2.092,0,0,1,301.847,251.289Zm-8.451-2.13h8.451V242.98H293.4Z" transform="translate(-260.516 -229.274)" fill="#a0371e"/>
    <path id="Path_755" data-name="Path 755" d="M301.847,335.926H293.4a2.092,2.092,0,0,1-2.13-2.13v-6.178a2.092,2.092,0,0,1,2.13-2.13h8.451a2.092,2.092,0,0,1,2.13,2.13V333.8A2.092,2.092,0,0,1,301.847,335.926ZM293.4,333.8h8.451v-6.178H293.4Z" transform="translate(-260.516 -302.407)" fill="#a0371e"/>
  </g>
</svg>
