<?xml version="1.0" encoding="iso-8859-1"?>
<!-- Generator: Adobe Illustrator 19.0.0, SVG Export Plug-In . SVG Version: 6.00 Build 0)  -->
<svg version="1.1" id="Capa_1" xmlns="http://www.w3.org/2000/svg" xmlns:xlink="http://www.w3.org/1999/xlink" x="0px" y="0px"
	 viewBox="0 0 503.641 503.641" style="enable-background:new 0 0 503.641 503.641;" xml:space="preserve">
<path style="fill:#1185E0;" d="M444.082,19.331H129.045c-31.869,0-57.469,25.6-57.469,56.947l-2.09,279.51H15.673
	C6.792,355.788,0,362.58,0,371.461V409.6c0,40.229,31.869,73.143,71.576,74.71l0,0h265.927l0,0c1.045,0,2.612,0,3.657,0
	c41.273,0,74.71-33.437,74.71-74.71V164.571h72.098c8.882,0,15.673-6.792,15.673-15.673V78.89
	C503.641,45.976,476.996,19.331,444.082,19.331z M74.71,452.963c-24.033,0-43.363-19.331-43.363-43.363v-22.465h235.102V409.6
	c0,16.196,5.224,31.347,14.106,43.363H74.71z M384.522,409.6c0,24.033-19.331,43.363-43.363,43.363
	c-24.033,0-43.363-19.331-43.363-43.363v-38.139c0-8.882-6.792-15.673-15.673-15.673h-181.29l2.09-279.51
	c0-14.106,11.494-25.6,26.122-25.6h262.792c-4.702,8.359-7.314,17.763-7.314,28.212V409.6z M472.294,133.224h-56.424V78.89
	c0-15.673,12.539-28.212,28.212-28.212s28.212,12.539,28.212,28.212L472.294,133.224L472.294,133.224z"/>
<g>
	<path style="fill:#4DCFE0;" d="M233.012,137.927h-80.98c-8.882,0-15.673-6.792-15.673-15.673s6.792-15.673,15.673-15.673h80.98
		c8.882,0,15.673,6.792,15.673,15.673S241.894,137.927,233.012,137.927z"/>
	<path style="fill:#4DCFE0;" d="M327.053,200.62h-175.02c-8.882,0-15.673-6.792-15.673-15.673s6.792-15.673,15.673-15.673h175.02
		c8.882,0,15.673,6.792,15.673,15.673S335.935,200.62,327.053,200.62z"/>
	<path style="fill:#4DCFE0;" d="M327.053,263.314h-175.02c-8.882,0-15.673-6.792-15.673-15.673c0-8.882,6.792-15.673,15.673-15.673
		h175.02c8.882,0,15.673,6.792,15.673,15.673C342.727,256.522,335.935,263.314,327.053,263.314z"/>
	<path style="fill:#4DCFE0;" d="M327.053,326.008h-175.02c-8.882,0-15.673-6.792-15.673-15.673c0-8.882,6.792-15.673,15.673-15.673
		h175.02c8.882,0,15.673,6.792,15.673,15.673C342.727,319.216,335.935,326.008,327.053,326.008z"/>
</g>
<g>
</g>
<g>
</g>
<g>
</g>
<g>
</g>
<g>
</g>
<g>
</g>
<g>
</g>
<g>
</g>
<g>
</g>
<g>
</g>
<g>
</g>
<g>
</g>
<g>
</g>
<g>
</g>
<g>
</g>
</svg>
