<?xml version="1.0" encoding="iso-8859-1"?>
<!-- Generator: Adobe Illustrator 19.0.0, SVG Export Plug-In . SVG Version: 6.00 Build 0)  -->
<svg version="1.1" id="Capa_1" xmlns="http://www.w3.org/2000/svg" xmlns:xlink="http://www.w3.org/1999/xlink" x="0px" y="0px"
	 viewBox="0 0 417.959 417.959" style="enable-background:new 0 0 417.959 417.959;" xml:space="preserve">
<g>
	<path style="fill:#4DCFE0;" d="M260.18,190.694H158.302c-8.882,0-15.673-6.792-15.673-15.673s6.792-15.673,15.673-15.673H260.18
		c8.882,0,15.673,6.792,15.673,15.673S269.061,190.694,260.18,190.694z"/>
	<path style="fill:#4DCFE0;" d="M201.143,258.612h-42.841c-8.882,0-15.673-6.792-15.673-15.673s6.792-15.673,15.673-15.673h42.841
		c8.882,0,15.673,6.792,15.673,15.673S210.024,258.612,201.143,258.612z"/>
	<path style="fill:#4DCFE0;" d="M182.857,326.531h-24.555c-8.882,0-15.673-6.792-15.673-15.673s6.792-15.673,15.673-15.673h24.555
		c8.882,0,15.673,6.792,15.673,15.673S191.739,326.531,182.857,326.531z"/>
	<path style="fill:#4DCFE0;" d="M103.445,122.776H74.71c-8.882,0-15.673-6.792-15.673-15.673s6.792-15.673,15.673-15.673h28.735
		c8.882,0,15.673,6.792,15.673,15.673S112.327,122.776,103.445,122.776z"/>
	<path style="fill:#4DCFE0;" d="M260.18,122.776H158.302c-8.882,0-15.673-6.792-15.673-15.673s6.792-15.673,15.673-15.673H260.18
		c8.882,0,15.673,6.792,15.673,15.673S269.061,122.776,260.18,122.776z"/>
	<path style="fill:#4DCFE0;" d="M103.445,190.694H74.71c-8.882,0-15.673-6.792-15.673-15.673s6.792-15.673,15.673-15.673h28.735
		c8.882,0,15.673,6.792,15.673,15.673S112.327,190.694,103.445,190.694z"/>
	<path style="fill:#4DCFE0;" d="M103.445,258.612H74.71c-8.882,0-15.673-6.792-15.673-15.673s6.792-15.673,15.673-15.673h28.735
		c8.882,0,15.673,6.792,15.673,15.673S112.327,258.612,103.445,258.612z"/>
	<path style="fill:#4DCFE0;" d="M103.445,326.531H74.71c-8.882,0-15.673-6.792-15.673-15.673s6.792-15.673,15.673-15.673h28.735
		c8.882,0,15.673,6.792,15.673,15.673S112.327,326.531,103.445,326.531z"/>
</g>
<path style="fill:#1185E0;" d="M413.257,143.673l-56.424-56.424c-6.269-6.269-16.196-6.269-21.943,0l-1.567,1.567V36.049
	c0-17.763-13.584-31.347-31.347-31.347H31.347C13.584,4.702,0,18.286,0,36.049V381.91c0,17.763,13.584,31.347,31.347,31.347h270.629
	c17.763,0,31.347-13.584,31.347-31.347V246.073l79.935-80.457C419.527,159.347,419.527,149.42,413.257,143.673z M301.976,381.91
	H31.347V36.049h270.629v83.592L190.171,231.445c-2.09,2.09-3.135,4.18-4.18,7.314l-20.376,77.322c-1.567,5.224,0,10.971,4.18,15.151
	c3.135,3.135,6.792,4.702,10.971,4.702c1.567,0,2.612,0,4.18-0.522l77.322-20.376c2.612-0.522,5.224-2.09,7.314-4.18l32.914-32.914
	V381.91H301.976z M209.502,272.718l18.286,18.286l-25.078,6.792L209.502,272.718z M258.09,277.42l-35.004-34.482l84.637-84.114
	l34.482,34.482L258.09,277.42z M364.669,170.318l-34.482-34.482l15.673-15.673l34.482,34.482L364.669,170.318z"/>
<g>
</g>
<g>
</g>
<g>
</g>
<g>
</g>
<g>
</g>
<g>
</g>
<g>
</g>
<g>
</g>
<g>
</g>
<g>
</g>
<g>
</g>
<g>
</g>
<g>
</g>
<g>
</g>
<g>
</g>
</svg>
