<?xml version="1.0" encoding="iso-8859-1"?>
<!-- Generator: Adobe Illustrator 19.0.0, SVG Export Plug-In . SVG Version: 6.00 Build 0)  -->
<svg version="1.1" id="Capa_1" xmlns="http://www.w3.org/2000/svg" xmlns:xlink="http://www.w3.org/1999/xlink" x="0px" y="0px"
	 viewBox="0 0 463.935 463.935" style="enable-background:new 0 0 463.935 463.935;" xml:space="preserve">
<path style="fill:#4DCFE0;" d="M247.837,196.963H216.49V15.673C216.49,6.792,223.282,0,232.163,0h147.853
	c5.747,0,11.494,3.657,14.106,8.882s2.09,12.016-1.567,16.718l-30.824,39.184l30.824,39.706c3.657,4.702,4.18,10.971,1.567,16.718
	c-2.612,5.224-7.837,8.882-14.106,8.882h-132.18V196.963z M247.837,98.22h100.31l-18.286-24.033c-4.18-5.747-4.18-13.584,0-19.331
	l18.286-24.033h-100.31V98.22z"/>
<path style="fill:#1185E0;" d="M402.482,440.424L245.747,178.678c-2.612-4.702-7.837-7.837-13.584-7.837s-10.449,3.135-13.584,7.837
	L61.845,440.424c-3.135,4.702-3.135,10.971,0,15.673c2.612,4.702,7.837,7.837,13.584,7.837h313.469
	c5.747,0,10.971-3.135,13.584-7.837C405.094,450.873,405.094,445.127,402.482,440.424z M232.163,216.816l64.261,107.102
	l-5.747,7.837l-24.033-24.033c-3.135-3.135-6.792-4.702-10.971-4.702s-8.359,1.567-10.971,4.702l-49.11,48.588l-29.257-29.257
	L232.163,216.816z M103.118,432.588l46.498-77.845l34.482,34.482c3.135,3.135,6.792,4.702,10.971,4.702
	c4.18,0,8.359-1.567,10.971-4.702l48.588-48.588l26.122,26.122c3.135,3.135,7.837,4.702,12.016,4.702
	c4.702-0.522,8.882-2.612,11.494-6.269l8.882-12.016l47.543,79.412L103.118,432.588L103.118,432.588z"/>
<g>
</g>
<g>
</g>
<g>
</g>
<g>
</g>
<g>
</g>
<g>
</g>
<g>
</g>
<g>
</g>
<g>
</g>
<g>
</g>
<g>
</g>
<g>
</g>
<g>
</g>
<g>
</g>
<g>
</g>
</svg>
