<?xml version="1.0" encoding="utf-8"?>
<!-- Generator: Adobe Illustrator 26.1.0, SVG Export Plug-In . SVG Version: 6.00 Build 0)  -->
<svg version="1.1" id="Capa_1" xmlns="http://www.w3.org/2000/svg" xmlns:xlink="http://www.w3.org/1999/xlink" x="0px" y="0px"
	 viewBox="0 0 466 466" style="enable-background:new 0 0 466 466;" xml:space="preserve">
<style type="text/css">
	.st0{fill:#02528A;}
</style>
<path class="st0" d="M383.5,344.8v1.6c0,34.5-28.2,62.7-62.7,62.7h-28.2c-5.2-18.3-22.5-31.9-42.3-31.9H233
	c-24.6,0-44.4,19.9-44.4,44.4S208.5,466,233,466h17.2c17.8,0,32.9-10.4,40.2-25.6h30.3c51.7,0,94-42.3,94-94v-1.6H383.5z
	 M250.3,434.7H233c-6.8,0-13.1-6.3-13.1-13.1s6.3-13.1,13.1-13.1h17.2c6.8,0,13.1,6.3,13.1,13.1
	C263.3,428.9,257.6,434.7,250.3,434.7z"/>
<path class="st0" d="M414.8,201.7v-19.9C414.8,81.5,333.3,0,233,0S51.2,81.5,51.2,181.3v20.4c-18.8,5.7-32.4,23.5-32.4,44.4V314
	c0,26.1,20.9,47,47,47h19.3c2.1,5.7,7.8,9.9,14.6,9.9l54.9,0.5l0,0c4.2,0,7.8-1.6,11-4.7c3.1-3.1,4.7-6.8,4.7-11V204.3
	c0-8.9-6.8-15.7-15.7-15.7H99.8c-6.8,0-12.5,4.2-14.6,10.4h-2.6v-17.8c0-82.5,67.4-149.9,150.5-149.9s150.5,67.4,150.5,150.5v17.2
	h-2.1c-2.1-6.3-7.8-10.4-14.6-10.4h-55.4c-8.9,0-15.7,6.8-15.7,15.7v151c0,8.9,6.8,15.7,15.7,15.7h55.4c6.8,0,12-4.2,14.6-9.9h18.8
	c26.1,0,47-20.9,47-47v-67.9C447.2,225.2,433.6,207.4,414.8,201.7z M115.5,220H139v120.2h-23.5C115.5,340.1,115.5,220,115.5,220z
	 M50.2,314v-67.9c0-8.9,6.8-15.7,15.7-15.7h18.3v99.3H65.8C56.9,329.7,50.2,322.9,50.2,314z M351.1,339.6h-24V220h24V339.6z
	 M415.9,314c0,8.9-6.8,15.7-15.7,15.7h-17.8v-99.3h17.8c8.9,0,15.7,6.8,15.7,15.7V314z"/>
</svg>
