<svg xmlns="http://www.w3.org/2000/svg" xmlns:xlink="http://www.w3.org/1999/xlink" width="224" height="47" viewBox="0 0 224 47">
    <defs>
        <path id="a" d="M0 47V.262h46.738V47z"/>
    </defs>
    <g fill="none" fill-rule="evenodd">
        <g>
            <mask id="b" fill="#fff">
                <use xlink:href="#a"/>
            </mask>
            <path fill="#FEFEFE" d="M18.463 7.322c-9.008 0-16.355 7.347-16.355 16.355s7.347 16.355 16.355 16.355 16.355-7.347 16.355-16.355S27.471 7.322 18.463 7.322m.596 31.519c-8.327 0-15.118-6.792-15.118-15.118 0-8.327 6.791-15.118 15.118-15.118s15.118 6.791 15.118 15.118c0 8.326-6.791 15.118-15.118 15.118m.962-29c-7.646 0-13.881 6.236-13.881 13.882 0 7.645 6.235 13.88 13.88 13.88 7.646 0 13.882-6.235 13.882-13.88 0-7.646-6.236-13.882-13.881-13.882M20.8 36.46c-7.015 0-12.736-5.722-12.736-12.736 0-7.016 5.721-12.736 12.736-12.736 7.014 0 12.736 5.72 12.736 12.736 0 7.014-5.722 12.736-12.736 12.736m2.84-17.135a4.407 4.407 0 0 0-4.398 4.399 4.406 4.406 0 0 0 4.398 4.397 4.406 4.406 0 0 0 4.398-4.397 4.407 4.407 0 0 0-4.398-4.399m-.825 7.605a3.213 3.213 0 0 1-3.206-3.206 3.213 3.213 0 0 1 3.206-3.208 3.214 3.214 0 0 1 3.208 3.208 3.213 3.213 0 0 1-3.208 3.206m-1.099-14.751c-6.358 0-11.545 5.186-11.545 11.545 0 6.358 5.187 11.544 11.545 11.544 6.359 0 11.545-5.186 11.545-11.544 0-6.359-5.186-11.545-11.545-11.545m.779 21.944c-5.728 0-10.4-4.672-10.4-10.399 0-5.728 4.672-10.4 10.4-10.4 5.727 0 10.4 4.672 10.4 10.4 0 5.727-4.673 10.399-10.4 10.399m1.008-19.516c-5.022 0-9.117 4.095-9.117 9.117 0 5.02 4.095 9.116 9.117 9.116 5.02 0 9.116-4.095 9.116-9.116 0-5.022-4.095-9.117-9.116-9.117m.87 17.088c-4.39 0-7.971-3.58-7.971-7.971 0-4.39 3.58-7.972 7.97-7.972 4.392 0 7.973 3.581 7.973 7.972 0 4.39-3.582 7.97-7.972 7.97m.916-14.75c-3.734 0-6.78 3.045-6.78 6.78 0 3.734 3.046 6.78 6.78 6.78 3.735 0 6.78-3.046 6.78-6.78 0-3.735-3.045-6.78-6.78-6.78m-.732 12.369a5.6 5.6 0 0 1-5.59-5.589 5.6 5.6 0 0 1 5.59-5.59 5.6 5.6 0 0 1 5.589 5.59 5.6 5.6 0 0 1-5.59 5.589M19.99 5.109c-10.252 0-18.613 8.361-18.613 18.614 0 10.252 8.36 18.613 18.613 18.613 10.252 0 18.614-8.361 18.614-18.613 0-10.253-8.362-18.614-18.614-18.614m-.655 36.113c-9.639 0-17.5-7.86-17.5-17.499 0-9.64 7.861-17.5 17.5-17.5 9.638 0 17.5 7.86 17.5 17.5 0 9.638-7.862 17.5-17.5 17.5m2.611-19.47c-1.085 0-1.97.885-1.97 1.97s.885 1.97 1.97 1.97 1.97-.885 1.97-1.97-.885-1.97-1.97-1.97M23.37.261C10.498.262 0 10.76 0 23.63 0 36.501 10.499 47 23.37 47S46.738 36.502 46.738 23.63 36.24.261 23.369.261m-.69 45.727c-12.238 0-22.22-9.982-22.22-22.22C.46 11.532 10.441 1.55 22.68 1.55c12.237 0 22.218 9.982 22.218 22.22 0 12.237-9.981 22.219-22.219 22.219m-1.025-43.22C10.11 2.769.698 12.183.698 23.724c0 11.54 9.413 20.954 20.955 20.954 11.54 0 20.953-9.414 20.953-20.954 0-11.541-9.413-20.954-20.953-20.954m-.702 40.805c-10.933 0-19.85-8.918-19.85-19.851 0-10.934 8.917-19.851 19.85-19.851 10.934 0 19.851 8.917 19.851 19.851 0 10.933-8.917 19.85-19.85 19.85" mask="url(#b)"/>
        </g>
        <path fill="#FEFEFE" d="M222.548 34.437c0 .355-.16.443-.544.443h-2.048v-.86h2.074c.384 0 .518.057.518.417zm-.07-1.651c0 .354-.103.424-.513.424h-2.01v-.797h2.151c.333 0 .372.113.372.373zm1.254 1.835c0-.55-.109-.943-.768-.987v-.045c.589-.094.698-.455.698-1.012 0-.962-.518-1.126-1.402-1.126h-3.489v4.391h3.514c.941 0 1.447-.145 1.447-1.221zm-10.636-.481c0 .652-.281.721-.71.721h-1.473c-.428 0-.704-.07-.704-.721v-.987c0-.652.276-.715.704-.715h1.473c.397 0 .71.063.71.715v.987zm1.217.126v-1.24c0-1.354-.948-1.607-1.927-1.607h-1.473c-1.017 0-1.92.253-1.92 1.607v1.24c0 1.355.896 1.614 1.92 1.614h1.473c1.024 0 1.927-.26 1.927-1.614zm-11.001.557h-2.695c.218-.215.493-.588.493-1.879v-.475h2.202v2.354zM204.919 37v-2.177h-.423v-3.372h-4.57v1.493c0 1.335-.32 1.595-.628 1.88h-.294V37h1.184v-1.158h3.546V37h1.185zm-10.034-1.158v-4.391H193.7v1.651h-2.9v-1.651h-1.184v4.391h1.185v-1.721h2.9v1.721h1.184zm-10.912-1.702c0 .652-.281.721-.71.721h-1.472c-.43 0-.704-.07-.704-.721v-.987c0-.652.275-.715.704-.715h1.472c.397 0 .71.063.71.715v.987zm1.217.126v-1.24c0-1.354-.948-1.607-1.927-1.607h-1.472c-1.018 0-1.92.253-1.92 1.607v1.24c0 1.355.895 1.614 1.92 1.614h1.472c1.024 0 1.927-.26 1.927-1.614zm-13.453.184h-.966c-.455 0-.538-.07-.538-.595v-.462c0-.417.083-.55.538-.55h.966v1.607zm2.689-.595c0 .525-.083.595-.538.595h-.966v-1.607h.966c.455 0 .538.133.538.55v.462zm1.216 0v-.462c0-1.12-.429-1.57-1.517-1.57h-1.203v-.372h-1.185v.373h-1.203c-1.089 0-1.517.45-1.517 1.57v.461c0 1.209.288 1.614 1.517 1.614h1.203v.373h1.185v-.373h1.203c1.23 0 1.517-.405 1.517-1.614zm-20.789 1.987l-2.285-2.322 1.965-2.07h-1.395l-1.408 1.412-1.409-1.411h-1.408l1.972 2.07-2.292 2.321h1.485l1.652-1.645 1.645 1.645h1.478zm-13.12-1.405c0 .393-.16.443-.543.443h-1.876v-.86h1.901c.384 0 .519.057.519.417zm1.185.038c0-1.316-.595-1.417-1.408-1.417h-2.196v-1.607h-1.184v4.391h3.341c.941 0 1.447-.101 1.447-1.367zm.416 1.367h1.184v-4.391h-1.184v4.391zm-9.65 0v-4.391H132.5v1.651h-2.9v-1.651h-1.184v4.391h1.184v-1.721h2.9v1.721h1.184zm-9.746 0v-4.391h-1.184v1.651h-2.9v-1.651h-1.184v4.391h1.184v-1.721h2.9v1.721h1.184zm-10.911-1.702c0 .652-.282.721-.71.721h-1.473c-.429 0-.704-.07-.704-.721v-.987c0-.652.275-.715.704-.715h1.472c.397 0 .71.063.71.715v.987zm1.216.126v-1.24c0-1.354-.947-1.607-1.927-1.607h-1.472c-1.018 0-1.92.253-1.92 1.607v1.24c0 1.355.896 1.614 1.92 1.614h1.472c1.025 0 1.927-.26 1.927-1.614zm-9.688 1.576v-4.391h-1.184l-2.913 2.948h-.013l.032-2.948h-1.184v4.391h1.184l2.913-2.955h.013l-.032 2.955h1.184zm-9.702-1.531v-.133h-1.222v.133c0 .512-.237.55-.723.55h-1.453c-.551 0-.634-.253-.634-.91v-.684c0-.627.121-.83.614-.83h1.473c.39 0 .678.026.716.419v.17h1.223v-.17c0-1.317-.653-1.437-1.684-1.437h-1.6c-1.126 0-1.965.209-1.965 1.658v1.14c0 1.6.941 1.663 1.985 1.663h1.453c.563 0 1.005.007 1.408-.323.403-.329.41-.765.41-1.246zm-9.63 1.531v-4.391h-1.184v1.651h-2.9v-1.651h-1.184v4.391h1.184v-1.721h2.9v1.721h1.184zm-9.72 0v-.962h-3.47v-.854h3.303v-.81h-3.303v-.803h3.43v-.962h-4.615v4.391h4.654zm-9.139 0v-4.391h-5.262v4.391h1.185V32.47h2.893v3.373h1.184zM224 28.37l-2.285-2.322 1.965-2.07h-1.395l-1.409 1.412-1.408-1.411h-1.408l1.971 2.069-2.291 2.322h1.485l1.651-1.645 1.645 1.645H224zm-13.382-1.405c0 .393-.16.443-.544.443H208.2v-.86h1.901c.384 0 .518.057.518.417zm1.185.038c0-1.316-.596-1.417-1.408-1.417h-2.196v-1.607h-1.185v4.391h3.342c.94 0 1.447-.1 1.447-1.367zm.416 1.367h1.184v-4.391h-1.184v4.391zm-9.912 0v-4.391h-1.185v1.651h-2.9v-1.651h-1.184v4.391h1.185v-1.72h2.9v1.72h1.184zm-10.009 0v-4.391h-1.184v1.651h-2.9v-1.651h-1.184v4.391h1.184v-1.72h2.9v1.72h1.184zm-9.982 0v-.962h-3.47v-.854h3.303v-.81h-3.303v-.804h3.431v-.961h-4.615v4.391h4.654zm-10.553-1.405c0 .355-.16.443-.544.443h-2.048v-.86h2.074c.384 0 .518.057.518.417zm-.07-1.651c0 .354-.103.424-.512.424h-2.01v-.798h2.15c.333 0 .372.115.372.374zm1.254 1.835c0-.55-.108-.943-.768-.987v-.045c.589-.094.698-.455.698-1.012 0-.962-.519-1.126-1.402-1.126h-3.489v4.391h3.515c.94 0 1.446-.145 1.446-1.221zm-9.457-2.152v-1.018h-4.923v1.018h1.844v3.373h1.184v-3.373h1.895zm-9.388 1.842v-.133h-1.223v.133c0 .512-.236.55-.723.55h-1.453c-.55 0-.634-.253-.634-.91v-.684c0-.627.122-.83.615-.83h1.472c.39 0 .679.026.717.418v.171h1.223v-.17c0-1.317-.653-1.437-1.684-1.437h-1.6c-1.127 0-1.965.209-1.965 1.658v1.139c0 1.6.94 1.664 1.984 1.664h1.453c.564 0 1.005.006 1.409-.323.403-.329.41-.765.41-1.246zM143.16 25.59c0 .563-.07.633-.537.633h-1.87v-1.228h1.87c.467 0 .537.14.537.595zm1.216 0c0-1.151-.415-1.613-1.516-1.613h-3.29v4.391h1.183v-1.126h2.107c1.241 0 1.516-.418 1.516-1.652zm-11.358 1.114h-1.889l.954-1.804.935 1.804zm2.183 1.664l-2.292-4.391h-1.684l-2.291 4.391h1.318l.397-.753h2.836l.39.753h1.326zm-12-1.019h-2.694c.217-.215.492-.588.492-1.879v-.475h2.203v2.354zm1.607 2.177V27.35h-.422v-3.372h-4.57v1.493c0 1.335-.32 1.595-.628 1.88h-.294v2.176h1.184V28.37h3.546v1.158h1.184zm-9.893-5.55h-1.363l-1.543 2.519h-.013l-1.568-2.518h-1.364l2.254 3.499-.02.05c-.031.077-.089.095-.166.095h-.653v.747h1.293c.327 0 .531-.108.628-.322l2.515-4.07zm-10.155 2.86v-.132h-1.223v.133c0 .512-.237.55-.723.55h-1.454c-.55 0-.633-.253-.633-.91v-.684c0-.627.121-.83.614-.83h1.473c.39 0 .678.026.717.418v.171h1.222v-.17c0-1.317-.653-1.437-1.683-1.437h-1.6c-1.127 0-1.966.209-1.966 1.658v1.139c0 1.6.941 1.664 1.985 1.664h1.453c.563 0 1.005.006 1.408-.323s.41-.765.41-1.246zm-11.058-.17c0 .652-.282.721-.71.721h-1.473c-.43 0-.704-.07-.704-.721v-.987c0-.652.275-.715.704-.715h1.472c.397 0 .71.063.71.715v.987zm1.216.127v-1.24c0-1.355-.948-1.608-1.927-1.608h-1.472c-1.018 0-1.92.253-1.92 1.607v1.24c0 1.355.896 1.614 1.92 1.614h1.472c1.024 0 1.927-.26 1.927-1.613zm-9.868-1.855v-.961h-4.621v4.391h1.184v-3.43h3.437zm-9.285 3.43v-.962h-3.469v-.854h3.303v-.81h-3.303v-.804h3.431v-.961h-4.615v4.391h4.653zm-9.393 0v-4.391h-1.184v1.651h-2.9v-1.651h-1.185v4.391h1.185v-1.72h2.9v1.72h1.184zm156.158-9.985h-2.074c-.41 0-.513-.019-.513-.436 0-.4.04-.481.372-.481h2.215v.917zm1.184 2.512v-4.391h-3.553c-.883 0-1.402.183-1.402 1.208 0 .64.16.981.756 1.044v.02c-.487.018-.756.297-.756.79v.304c0 .298-.115.278-.281.278v.747h.78c.468 0 .685-.221.685-.658v-.45c0-.328.129-.55.494-.55h2.093v1.658h1.184zm-6.749 0v-4.391h-1.184l-2.913 2.948h-.012l.032-2.948h-1.185v4.391h1.185l2.912-2.955h.013l-.032 2.955h1.184zm-6.595 1.158v-2.177h-.422v-3.372h-1.185v3.372h-2.893v-3.372h-1.184v4.391h4.5v1.158h1.184zm-9.258-2.822h-1.888l.954-1.804.934 1.804zm2.183 1.664l-2.292-4.391h-1.683l-2.292 4.391h1.319l.397-.753h2.836l.39.753h1.325zm-7.696 0v-4.391h-1.184l-2.913 2.948h-.013l.032-2.948h-1.184v4.391h1.184l2.913-2.955h.013l-.032 2.955h1.184zm-6.595 1.158v-2.177h-.423v-3.372h-1.184v3.372h-2.893v-3.372h-1.184v4.391h4.5v1.158h1.184zm-8.599-2.86c0 .652-.281.721-.71.721h-1.473c-.429 0-.704-.07-.704-.721v-.987c0-.652.275-.715.704-.715h1.473c.396 0 .71.063.71.715v.987zm1.216.127v-1.24c0-1.355-.947-1.608-1.926-1.608h-1.473c-1.017 0-1.92.253-1.92 1.607v1.24c0 1.355.896 1.614 1.92 1.614h1.473c1.024 0 1.926-.26 1.926-1.613zm-6.915.044v-.133h-1.222v.133c0 .512-.237.55-.724.55h-1.453c-.55 0-.633-.253-.633-.91v-.684c0-.627.121-.83.614-.83h1.472c.39 0 .679.026.717.418v.171h1.223v-.17c0-1.317-.653-1.437-1.684-1.437h-1.6c-1.127 0-1.965.209-1.965 1.658v1.139c0 1.6.94 1.664 1.984 1.664h1.453c.564 0 1.005.006 1.409-.323.403-.329.41-.765.41-1.246zm-6.864 0v-.133h-1.222v.133c0 .512-.237.55-.724.55h-1.453c-.55 0-.634-.253-.634-.91v-.684c0-.627.122-.83.615-.83h1.472c.39 0 .679.026.717.418v.171h1.223v-.17c0-1.317-.653-1.437-1.684-1.437h-1.6c-1.127 0-1.965.209-1.965 1.658v1.139c0 1.6.94 1.664 1.984 1.664h1.453c.564 0 1.005.006 1.408-.323.404-.329.41-.765.41-1.246zm-8.727-.133h-1.888l.954-1.804.934 1.804zm2.183 1.664l-2.291-4.391h-1.684l-2.292 4.391h1.32l.396-.753h2.836l.39.753h1.325zm-19.007-2.512h-2.074c-.41 0-.512-.019-.512-.436 0-.4.038-.481.371-.481h2.215v.917zm1.184 2.512v-4.391h-3.553c-.883 0-1.401.183-1.401 1.208 0 .64.16.981.755 1.044v.02c-.487.018-.755.297-.755.79v.304c0 .298-.115.278-.282.278v.747h.781c.467 0 .685-.221.685-.658v-.45c0-.328.128-.55.493-.55h2.093v1.658h1.184zm-8.566-1.664h-1.889l.954-1.804.935 1.804zm2.182 1.664l-2.291-4.391h-1.684l-2.291 4.391h1.318l.397-.753h2.836l.39.753h1.325zm-7.689 0v-4.391h-1.184v1.651h-2.9v-1.651h-1.184v4.391h1.184v-1.72h2.9v1.72h1.184zm-8.074-1.405c0 .393-.16.443-.544.443h-1.876v-.86h1.901c.384 0 .52.057.52.417zm1.184.038c0-1.316-.595-1.417-1.408-1.417h-2.196v-1.607h-1.184v4.391h3.342c.94 0 1.446-.101 1.446-1.367zM116 20.896v-4.391h-4.929v3.113c0 .354-.166.468-.416.468h-.25v.81h.973c.596 0 .878-.525.878-1.1v-2.273h2.56v3.373H116zm-8.835-1.664h-1.889l.954-1.804.935 1.804zm2.183 1.664l-2.292-4.391h-1.683l-2.292 4.391h1.319l.396-.753h2.836l.39.753h1.326zm-7.69 0v-4.391h-1.184v1.651h-2.9v-1.651h-1.184v4.391h1.184v-1.72h2.9v1.72h1.184zm-8.183-1.702c0 .652-.281.721-.71.721h-1.472c-.43 0-.705-.07-.705-.721v-.987c0-.652.276-.715.705-.715h1.472c.397 0 .71.063.71.715v.987zm1.217.127v-1.24c0-1.355-.948-1.608-1.927-1.608h-1.472c-1.018 0-1.92.253-1.92 1.607v1.24c0 1.355.895 1.614 1.92 1.614h1.472c1.024 0 1.927-.26 1.927-1.613zm-6.96 1.575v-4.391h-1.185l-2.912 2.948h-.013l.032-2.948H82.47v4.391h1.184l2.913-2.955h.012l-.032 2.955h1.185zm-6.595 1.158v-2.177h-.423v-3.372h-1.184v3.372h-2.893v-3.372H75.45v4.391h4.5v1.158h1.185zm-9.258-2.822h-1.889l.954-1.804.935 1.804zm2.182 1.664l-2.291-4.391h-1.684l-2.292 4.391h1.32l.396-.753h2.836l.39.753h1.325zm-7.69 0v-4.391h-1.183v1.651h-2.9v-1.651h-1.185v4.391h1.185v-1.72h2.9v1.72h1.184zm156.159-9.985h-2.074c-.41 0-.513-.02-.513-.437 0-.398.04-.48.372-.48h2.215v.917zm1.184 2.512V9.032h-3.553c-.883 0-1.402.183-1.402 1.208 0 .64.16.981.756 1.044v.02c-.487.018-.756.297-.756.79v.304c0 .298-.115.278-.281.278v.747h.78c.468 0 .685-.221.685-.658v-.45c0-.328.129-.55.494-.55h2.093v1.658h1.184zm-5.71 0V9.032h-1.184l-2.913 2.949h-.012l.032-2.95h-1.185v4.392h1.185l2.912-2.955h.013l-.032 2.955h1.184zm-5.556 1.158v-2.177h-.423V9.032h-1.184v3.372h-2.893V9.032h-1.184v4.391h4.5v1.158h1.184zm-8.22-2.822h-1.888l.954-1.803.935 1.803zm2.183 1.664l-2.291-4.391h-1.684l-2.291 4.391h1.318l.397-.753h2.836l.39.753h1.325zm-6.663-1.265c0-.507-.167-.918-.73-.943v-.044c.544-.07.679-.5.679-.988 0-1.126-.96-1.183-1.697-1.183h-1.472c-1.127 0-1.805.101-1.805 1.354v.152h1.127v-.088c0-.5.198-.507.627-.507h1.472c.596 0 .621.12.621.487 0 .298-.045.355-.621.355h-1.178v.848h1.178c.621 0 .678.114.678.411 0 .512-.198.532-.678.532h-1.472c-.403 0-.672-.02-.672-.513v-.145h-1.127v.233c0 1.253.826 1.342 1.85 1.342H198c.999 0 1.748-.164 1.748-1.303zm-5.736 1.265V9.032h-1.184l-2.912 2.949h-.013l.032-2.95h-1.185v4.392h1.185l2.912-2.955h.013l-.032 2.955h1.184zm-5.972 0V9.032h-1.184v1.651h-2.9V9.032h-1.184v4.391h1.184v-1.72h2.9v1.72h1.184zm-7.803-1.664h-1.888l.954-1.803.934 1.803zm2.183 1.664l-2.292-4.391h-1.684l-2.29 4.391h1.318l.397-.753h2.835l.39.753h1.326zm-6.574-3.43v-.961h-4.622v4.391h1.184v-3.43h3.438zm-6.331.652c0 .563-.07.633-.538.633h-1.869V10.05h1.87c.467 0 .537.14.537.595zm1.216 0c0-1.152-.416-1.613-1.517-1.613h-3.29v4.391h1.184v-1.126h2.106c1.242 0 1.517-.418 1.517-1.652zm-6.67 1.076c0 .652-.282.721-.71.721h-1.473c-.429 0-.704-.07-.704-.721v-.987c0-.652.275-.715.704-.715h1.472c.398 0 .711.063.711.715v.987zm1.216.127v-1.24c0-1.355-.947-1.608-1.927-1.608h-1.472c-1.018 0-1.92.253-1.92 1.607v1.24c0 1.355.896 1.614 1.92 1.614h1.472c1.024 0 1.927-.26 1.927-1.613zm-10.472-.937h-2.074c-.41 0-.512-.02-.512-.437 0-.398.038-.48.371-.48h2.215v.917zm1.184 2.512V9.032h-3.553c-.883 0-1.402.183-1.402 1.208 0 .64.16.981.756 1.044v.02c-.487.018-.756.297-.756.79v.304c0 .298-.115.278-.281.278v.747h.78c.468 0 .686-.221.686-.658v-.45c0-.328.128-.55.493-.55h2.093v1.658h1.184zm-7.528-1.664h-1.888l.954-1.803.934 1.803zm2.183 1.664l-2.292-4.391h-1.683l-2.292 4.391h1.319l.397-.753h2.836l.39.753h1.325zm-6.638 0V9.032h-1.709l-1.83 3.233-1.768-3.233h-1.767v4.391h1.185v-3.227l1.773 3.227h1.152l1.78-3.227v3.227h1.184zm-7.778 0v-.962h-3.47v-.854h3.304v-.81h-3.303v-.804h3.431v-.961h-4.615v4.391h4.653zm-4.96-4.391h-1.364l-1.543 2.518h-.013l-1.568-2.518h-1.363l2.253 3.499-.02.05c-.031.076-.089.095-.166.095h-.653v.747h1.294c.326 0 .53-.107.627-.323l2.516-4.068zm-7.215 1.613c0 .563-.07.633-.538.633h-1.869V10.05h1.87c.467 0 .537.14.537.595zm1.216 0c0-1.152-.416-1.613-1.517-1.613h-3.29v4.391h1.184v-1.126h2.106c1.242 0 1.517-.418 1.517-1.652zm-5.51 2.778V9.032h-1.185l-2.913 2.949h-.012l.032-2.95h-1.185v4.392h1.185l2.912-2.955h.013l-.032 2.955h1.184zm-5.98 0V9.032h-4.929v3.113c0 .354-.166.468-.416.468h-.25v.81h.974c.595 0 .876-.525.876-1.1V10.05h2.56v3.373h1.185zm-5.569-4.391h-1.363l-1.543 2.518h-.013l-1.568-2.518h-1.364l2.254 3.499-.02.05c-.031.076-.09.095-.166.095h-.653v.747h1.293c.327 0 .532-.107.627-.323l2.516-4.068zm-6.087.961v-.961H97.5v4.391h1.184v-3.43h3.438zm-5.256 3.43v-.962h-3.47v-.854H96.7v-.81h-3.303v-.804h3.43v-.961h-4.615v4.391h4.654zm-6.414-2.778c0 .563-.07.633-.537.633h-1.87V10.05h1.87c.467 0 .537.14.537.595zm1.216 0c0-1.152-.416-1.613-1.517-1.613h-3.29v4.391h1.184v-1.126h2.106c1.242 0 1.517-.418 1.517-1.652zm-6.67 1.076c0 .652-.281.721-.71.721h-1.473c-.428 0-.704-.07-.704-.721v-.987c0-.652.276-.715.704-.715h1.473c.397 0 .71.063.71.715v.987zm1.217.127v-1.24c0-1.355-.948-1.608-1.927-1.608h-1.473c-1.017 0-1.92.253-1.92 1.607v1.24c0 1.355.896 1.614 1.92 1.614h1.473c1.024 0 1.927-.26 1.927-1.613zm-5.902 1.575V9.032h-1.71l-1.83 3.233-1.767-3.233H73.24v4.391h1.184v-3.227l1.773 3.227h1.153l1.78-3.227v3.227h1.184zm-9.628-1.664h-1.888l.954-1.803.934 1.803zm2.183 1.664l-2.292-4.391h-1.683L66.6 13.423h1.319l.397-.753h2.836l.39.753h1.325zm-6.613-1.531v-.133h-1.222v.133c0 .512-.237.55-.723.55h-1.454c-.55 0-.633-.253-.633-.91v-.684c0-.627.121-.83.614-.83h1.473c.39 0 .678.026.716.418v.171h1.223v-.17C66.25 9.12 65.596 9 64.566 9h-1.6C61.837 9 61 9.209 61 10.658v1.139c0 1.6.941 1.664 1.985 1.664h1.452c.564 0 1.006.006 1.409-.322.403-.33.41-.766.41-1.247z"/>
    </g>
</svg>
