<svg xmlns="http://www.w3.org/2000/svg" xmlns:xlink="http://www.w3.org/1999/xlink" width="541.938" height="302.08" viewBox="0 0 541.938 302.08"><defs><linearGradient id="a" x1="0.5" x2="0.5" y2="1" gradientUnits="objectBoundingBox"><stop offset="0" stop-color="#0069aa"/><stop offset="1" stop-color="#0069aa" stop-opacity="0.6"/></linearGradient></defs><g transform="translate(-1077.151 -913.342)"><g transform="translate(-214.226 -3213)"><path d="M63.228,113.569q-6.889-6.727-6.889-17.765V89.924q0-10.8,7.009-17.483t17.886-6.687q10.958,0,17.926,6.687t6.969,18.047v5.72q0,10.473-6.727,17.282T81.4,120.3Q70.116,120.3,63.228,113.569Zm9.91-32.75q-3.1,3.384-3.1,9.346v5.963a12.85,12.85,0,0,0,3.182,8.983,10.546,10.546,0,0,0,8.177,3.5,10.222,10.222,0,0,0,8.1-3.343q2.94-3.344,2.94-9.386V89.842a12.736,12.736,0,0,0-3.142-9.023,11.33,11.33,0,0,0-16.153,0ZM18.876,104.1,76.159,12.418l10.07,5.8L28.947,109.9ZM6.992,47.586Q-.058,40.938-.058,29.66v-5.72q0-10.634,6.848-17.442T24.757-.311q11.279,0,18.087,6.809t6.808,17.845v5.8q0,10.554-6.808,17.322T24.918,54.232Q14.041,54.232,6.992,47.586Zm9.668-32.7a13.69,13.69,0,0,0-3.021,9.249V30.11a12.92,12.92,0,0,0,3.1,9.007,10.491,10.491,0,0,0,8.177,3.433,10.276,10.276,0,0,0,8.057-3.433q3.062-3.433,3.061-9.329v-5.9a13.071,13.071,0,0,0-3.1-9.048,10.437,10.437,0,0,0-8.177-3.473A10.14,10.14,0,0,0,16.66,14.884Z" transform="translate(1727.097 4126.75)" fill="url(#a)"/><path d="M55.256,288.514V59.486l-69.9,23.829V43.371L96.57,2.449h6.071V288.514Z" transform="translate(1306.021 4123.893)" fill="url(#a)"/></g><g transform="translate(14.774 -3521)"><path d="M-61.379,259.206q-25.747-22.222-27.9-58.642h46.013q2.742,20.755,14.881,31.818t31.72,11.063q21.931,0,34.168-15.664T49.738,185.1q0-26.042-13.51-41.215t-37.2-15.175q-12.922,0-21.929,3.426t-19.58,13.413l-37.985-9.4L-65-7.572H88.115V33.547H-25.449l-7.833,68.138q19.776-11.356,44.643-11.356,40.727,0,63.342,26.042t22.615,70.1q0,43.469-25.063,69.215T3.529,281.43Q-35.631,281.43-61.379,259.206Z" transform="translate(1348.021 4442.893)" fill="url(#a)"/></g><g transform="translate(277.774 -3421)"><path d="M-135.172,192.721a34.451,34.451,0,0,0,3.882-7.739,23.076,23.076,0,0,0,1.1-6.714V169.04H-119.5l-.049,8.545a23.811,23.811,0,0,1-2.612,10.376,25.772,25.772,0,0,1-6.617,8.569Zm46.24-12.207V123.4l-17.431,5.942v-9.96l27.734-10.205h1.514v71.338Z" transform="translate(1352.021 4439.893)" fill="url(#a)"/><path d="M-123.282,175.948a20.036,20.036,0,0,1-6.958-14.623h11.474a12.534,12.534,0,0,0,3.712,7.934,11.289,11.289,0,0,0,7.91,2.758,10.2,10.2,0,0,0,8.52-3.906q3.051-3.907,3.052-10.645,0-6.493-3.37-10.278t-9.277-3.785a15.428,15.428,0,0,0-5.468.855,15.5,15.5,0,0,0-4.883,3.344l-9.472-2.344,3.857-35.84H-86v10.254h-28.32l-1.953,16.992a21.959,21.959,0,0,1,11.133-2.831q10.156,0,15.8,6.494t5.639,17.48q0,10.841-6.25,17.261T-107.1,181.49Q-116.861,181.49-123.282,175.948Z" transform="translate(1425.021 4439.893)" fill="url(#a)"/></g><text transform="translate(1512 1058)" fill="#2a2a2a" font-size="23" font-family="Roboto-Bold, Roboto" font-weight="700"><tspan x="0" y="0">годовых</tspan></text></g></svg>