<svg xmlns="http://www.w3.org/2000/svg" xmlns:xlink="http://www.w3.org/1999/xlink" width="558.883" height="305.018" viewBox="0 0 558.883 305.018"><defs><linearGradient id="a" x1="0.5" x2="0.5" y2="1" gradientUnits="objectBoundingBox"><stop offset="0" stop-color="#0069aa"/><stop offset="1" stop-color="#0069aa" stop-opacity="0.6"/></linearGradient></defs><g transform="translate(-1060.116 -910.404)"><g transform="translate(-214.226 -3213)"><path d="M63.228,113.569q-6.889-6.727-6.889-17.765V89.924q0-10.8,7.009-17.483t17.886-6.687q10.958,0,17.926,6.687t6.969,18.047v5.72q0,10.473-6.727,17.282T81.4,120.3Q70.116,120.3,63.228,113.569Zm9.91-32.75q-3.1,3.384-3.1,9.346v5.963a12.85,12.85,0,0,0,3.182,8.983,10.546,10.546,0,0,0,8.177,3.5,10.222,10.222,0,0,0,8.1-3.343q2.94-3.344,2.94-9.386V89.842a12.736,12.736,0,0,0-3.142-9.023,11.33,11.33,0,0,0-16.153,0ZM18.876,104.1,76.159,12.418l10.07,5.8L28.947,109.9ZM6.992,47.586Q-.058,40.938-.058,29.66v-5.72q0-10.634,6.848-17.442T24.757-.311q11.279,0,18.087,6.809t6.808,17.845v5.8q0,10.554-6.808,17.322T24.918,54.232Q14.041,54.232,6.992,47.586Zm9.668-32.7a13.69,13.69,0,0,0-3.021,9.249V30.11a12.92,12.92,0,0,0,3.1,9.007,10.491,10.491,0,0,0,8.177,3.433,10.276,10.276,0,0,0,8.057-3.433q3.062-3.433,3.061-9.329v-5.9a13.071,13.071,0,0,0-3.1-9.048,10.437,10.437,0,0,0-8.177-3.473A10.14,10.14,0,0,0,16.66,14.884Z" transform="translate(1727.097 4126.75)" fill="url(#a)"/><path d="M-26.2,288.514v-32.7L68.766,152.237q20.559-22.909,29.272-38.279t8.713-30.839q0-20.362-11.454-32.894T64.459,37.693q-23.1,0-35.832,14.1T15.9,90.364H-31.679q0-26.042,11.846-46.895a81.575,81.575,0,0,1,33.873-32.4Q36.068-.489,64.85-.488q41.51,0,65.5,20.853t23.986,57.663q0,21.342-12.042,44.741t-39.454,53.159l-69.7,74.6H165.492v37.985Z" transform="translate(1306.021 4123.893)" fill="url(#a)"/></g><g transform="translate(14.774 -3521)"><path d="M-11.743,277.514V48.485l-69.9,23.83V32.371L29.57-8.551h6.07V277.514Z" transform="translate(1348.021 4442.893)" fill="url(#a)"/></g><g transform="translate(277.774 -3421)"><path d="M-135.172,192.721a34.451,34.451,0,0,0,3.882-7.739,23.076,23.076,0,0,0,1.1-6.714V169.04H-119.5l-.049,8.545a23.811,23.811,0,0,1-2.612,10.376,25.772,25.772,0,0,1-6.617,8.569Zm32.373-12.207,28.369-61.573H-111.2V109.42H-61.93v6.592l-28.418,64.5Z" transform="translate(1352.021 4439.893)" fill="url(#a)"/><path d="M-124.21,173.629q-6.616-7.861-6.616-20.605v-4.053q0-18.7,9.106-29.3t26.2-10.6h1.22v9.814h-1.464q-9.962.147-15.918,5.469t-7.08,15.088a19.266,19.266,0,0,1,14.6-6.006q9.424,0,14.868,6.64t5.445,17.139q0,10.84-6.373,17.554t-16.723,6.714A21.484,21.484,0,0,1-124.21,173.629Zm10.01-28.417a12.849,12.849,0,0,0-4.761,5.859v3.613q0,7.91,3.321,12.573a10.125,10.125,0,0,0,8.593,4.664,10.017,10.017,0,0,0,8.35-3.955q3.075-3.956,3.075-10.4t-3.125-10.5a9.962,9.962,0,0,0-8.3-4.053A12.49,12.49,0,0,0-114.2,145.211Z" transform="translate(1425.021 4439.893)" fill="url(#a)"/></g><text transform="translate(1512 1058)" fill="#2a2a2a" font-size="23" font-family="Roboto-Bold, Roboto" font-weight="700"><tspan x="0" y="0">годовых</tspan></text></g></svg>