<svg xmlns="http://www.w3.org/2000/svg" width="490" height="490" viewBox="0 0 490 490">
  <g id="refresh_blue" transform="translate(-11 -11)">
    <path id="Контур_760" data-name="Контур 760" d="M480.6,235.6A20.357,20.357,0,0,0,460.2,256c0,112.6-91.6,204.2-204.2,204.2S51.8,368.6,51.8,256,143.4,51.8,256,51.8a203.076,203.076,0,0,1,157.1,73.7H342.6a20.4,20.4,0,1,0,0,40.8H457.2a20.357,20.357,0,0,0,20.4-20.4V31.4a20.4,20.4,0,1,0-40.8,0v59A244.253,244.253,0,0,0,256,11C120.9,11,11,120.9,11,256S120.9,501,256,501,501,391.1,501,256A20.357,20.357,0,0,0,480.6,235.6Z" fill="#0069aa"/>
  </g>
</svg>

