<?xml version="1.0" encoding="iso-8859-1"?>
<!-- Generator: Adobe Illustrator 19.0.0, SVG Export Plug-In . SVG Version: 6.00 Build 0)  -->
<svg version="1.1" id="Capa_1" xmlns="http://www.w3.org/2000/svg" xmlns:xlink="http://www.w3.org/1999/xlink" x="0px" y="0px"
	 viewBox="0 0 480.653 480.653" style="enable-background:new 0 0 480.653 480.653;" xml:space="preserve">
<path style="fill:#1185E0;" d="M352.653,0H128c-20.376,0-36.571,16.196-36.571,36.571v407.51c0,20.376,16.196,36.571,36.571,36.571
	h224.653c20.376,0,36.571-16.196,36.571-36.571V36.571C389.224,16.196,373.029,0,352.653,0z M128,31.347h224.653
	c2.612,0,5.224,2.612,5.224,5.224v36.571H122.776V36.571C122.776,33.959,125.388,31.347,128,31.347z M357.878,104.49v229.878
	H122.776V104.49H357.878z M352.653,449.306H128c-2.612,0-5.224-2.612-5.224-5.224v-78.367h235.102v78.367
	C357.878,446.694,355.265,449.306,352.653,449.306z"/>
<path style="fill:#4DCFE0;" d="M237.714,440.947c-18.286,0-33.437-15.151-33.437-33.437s15.151-33.437,33.437-33.437
	s33.437,15.151,33.437,33.437S256,440.947,237.714,440.947z M237.714,405.42c-1.045,0-2.09,1.045-2.09,2.09s1.045,2.09,2.09,2.09
	s2.09-1.045,2.09-2.09S238.759,405.42,237.714,405.42z"/>
<g>
</g>
<g>
</g>
<g>
</g>
<g>
</g>
<g>
</g>
<g>
</g>
<g>
</g>
<g>
</g>
<g>
</g>
<g>
</g>
<g>
</g>
<g>
</g>
<g>
</g>
<g>
</g>
<g>
</g>
</svg>
