<?xml version="1.0" encoding="iso-8859-1"?>
<!-- Generator: Adobe Illustrator 19.0.0, SVG Export Plug-In . SVG Version: 6.00 Build 0)  -->
<svg version="1.1" id="Capa_1" xmlns="http://www.w3.org/2000/svg" xmlns:xlink="http://www.w3.org/1999/xlink" x="0px" y="0px"
	 viewBox="0 0 450.351 450.351" style="enable-background:new 0 0 450.351 450.351;" xml:space="preserve">
<path style="fill:#1185E0;" d="M423.445,450.351H26.906c-8.882,0-15.673-6.792-15.673-15.673V15.673C11.233,6.792,18.024,0,26.906,0
	h396.539c8.882,0,15.673,6.792,15.673,15.673v419.004C439.118,443.559,432.327,450.351,423.445,450.351z M42.58,419.004h365.192
	V31.347H42.58V419.004z"/>
<path style="fill:#4DCFE0;" d="M369.633,141.584H80.718c-8.882,0-15.673-6.792-15.673-15.673V63.739
	c0-8.882,6.792-15.673,15.673-15.673h288.914c8.882,0,15.673,6.792,15.673,15.673v62.171
	C385.306,134.792,378.514,141.584,369.633,141.584z M96.392,110.237h257.567V79.412H96.392V110.237z"/>
<g>
	<path style="fill:#1185E0;" d="M142.89,232.49H80.718c-8.882,0-15.673-6.792-15.673-15.673v-45.453
		c0-8.882,6.792-15.673,15.673-15.673h62.171c8.882,0,15.673,6.792,15.673,15.673v45.453
		C158.563,225.698,151.771,232.49,142.89,232.49z M96.392,201.143h30.824v-14.106H96.392V201.143z"/>
	<path style="fill:#1185E0;" d="M142.89,317.649H80.718c-8.882,0-15.673-6.792-15.673-15.673v-45.453
		c0-8.882,6.792-15.673,15.673-15.673h62.171c8.882,0,15.673,6.792,15.673,15.673v45.453
		C158.563,310.857,151.771,317.649,142.89,317.649z M96.392,286.302h30.824v-14.106H96.392V286.302z"/>
	<path style="fill:#1185E0;" d="M142.89,402.286H80.718c-8.882,0-15.673-6.792-15.673-15.673v-45.453
		c0-8.882,6.792-15.673,15.673-15.673h62.171c8.882,0,15.673,6.792,15.673,15.673v45.453
		C158.563,395.494,151.771,402.286,142.89,402.286z M96.392,370.939h30.824v-14.106H96.392V370.939z"/>
	<path style="fill:#1185E0;" d="M255.739,232.49h-62.171c-8.882,0-15.673-6.792-15.673-15.673v-45.453
		c0-8.882,6.792-15.673,15.673-15.673h62.171c8.882,0,15.673,6.792,15.673,15.673v45.453
		C271.412,225.698,264.62,232.49,255.739,232.49z M209.241,201.143h30.824v-14.106h-30.824V201.143z"/>
	<path style="fill:#1185E0;" d="M255.739,317.649h-62.171c-8.882,0-15.673-6.792-15.673-15.673v-45.453
		c0-8.882,6.792-15.673,15.673-15.673h62.171c8.882,0,15.673,6.792,15.673,15.673v45.453
		C271.412,310.857,264.62,317.649,255.739,317.649z M209.241,286.302h30.824v-14.106h-30.824V286.302z"/>
	<path style="fill:#1185E0;" d="M255.739,402.286h-62.171c-8.882,0-15.673-6.792-15.673-15.673v-45.453
		c0-8.882,6.792-15.673,15.673-15.673h62.171c8.882,0,15.673,6.792,15.673,15.673v45.453
		C271.412,395.494,264.62,402.286,255.739,402.286z M209.241,370.939h30.824v-14.106h-30.824V370.939z"/>
	<path style="fill:#1185E0;" d="M369.11,232.49h-62.171c-8.882,0-15.673-6.792-15.673-15.673v-45.453
		c0-8.882,6.792-15.673,15.673-15.673h62.171c8.882,0,15.673,6.792,15.673,15.673v45.453
		C384.784,225.698,377.992,232.49,369.11,232.49z M322.612,201.143h30.824v-14.106h-30.824V201.143z"/>
	<path style="fill:#1185E0;" d="M369.11,317.649h-62.171c-8.882,0-15.673-6.792-15.673-15.673v-45.453
		c0-8.882,6.792-15.673,15.673-15.673h62.171c8.882,0,15.673,6.792,15.673,15.673v45.453
		C384.784,310.857,377.992,317.649,369.11,317.649z M322.612,286.302h30.824v-14.106h-30.824V286.302z"/>
	<path style="fill:#1185E0;" d="M369.11,402.286h-62.171c-8.882,0-15.673-6.792-15.673-15.673v-45.453
		c0-8.882,6.792-15.673,15.673-15.673h62.171c8.882,0,15.673,6.792,15.673,15.673v45.453
		C384.784,395.494,377.992,402.286,369.11,402.286z M322.612,370.939h30.824v-14.106h-30.824V370.939z"/>
</g>
<g>
</g>
<g>
</g>
<g>
</g>
<g>
</g>
<g>
</g>
<g>
</g>
<g>
</g>
<g>
</g>
<g>
</g>
<g>
</g>
<g>
</g>
<g>
</g>
<g>
</g>
<g>
</g>
<g>
</g>
</svg>
