<svg width="210" height="60" xmlns="http://www.w3.org/2000/svg" viewBox="0 0 188 50.334">
  <path fill="#40699F" d="M26.217 14.19c-3.66-5.263-7.393-9.608-7.393-9.608s-3.73 4.345-7.394 9.608c-3.532 5.076-7 10.963-7.002 16.897 0 7.952 6.445 14.398 14.396 14.398 7.95 0 14.396-6.446 14.396-14.398-.002-5.935-3.47-11.822-7.003-16.897z"/>
  <path fill="#FFF" fill-rule="evenodd" d="M18.818 35.39c2.37 0 4.29-1.916 4.29-4.28 0-2.37-1.92-4.288-4.29-4.288-2.36 0-4.277 1.917-4.277 4.287 0 2.36 1.92 4.28 4.28 4.28z" clip-rule="evenodd"/>
  <path fill="#FFF" fill-rule="evenodd" d="M18.302 42.15c-4.324-.21-8.142-2.957-9.728-6.997-1.24-3.887-.272-9.248 2.412-13.334.356-.54.763-.81 1.243-.81.38 0 .74.17 1.02.31.27.15.51.47.58.8.04.18.05.45-.13.71-.42.59-2.93 5.54-1.86 9.89.77 3.15 3.44 5.11 6.97 5.13 3.52-.01 6.19-1.98 6.97-5.13 1.07-4.35-1.44-9.3-1.86-9.9-.18-.26-.17-.53-.13-.71.07-.33.31-.65.58-.8.27-.15.64-.32 1.02-.32.48 0 .89.26 1.24.8 2.684 4.08 3.65 9.44 2.41 13.34-1.584 4.03-5.4 6.78-9.727 6.99H18.3z" clip-rule="evenodd"/>
  <path fill="#40699F" d="M70.095 27.603c-.824-.47-1.954-.58-3.353-.58h-4.45v15.435h3.758v-3.884h.692c1.398-.003 2.528-.113 3.353-.58.834-.468 1.287-1.333 1.276-2.613v-5.16c.02-1.28-.44-2.14-1.27-2.61zm-2.483 6.34c0 .69-.01 1.244-.15 1.56-.144.297-.33.453-.97.467h-.442v-6.344h.44c.64.016.826.17.972.474.14.32.15.88.15 1.578v2.264zm18.62-.59l-1.493-6.33H73.35v15.435h3.76V29.626h3.803l.263-1.24 3.046 9.478-1.05 4.594h3.815l4.123-14.123.286 1.29h2.545V42.46h3.77V29.626h2.8v-2.603H87.65m-31.82 6.33l-1.494-6.33h-3.994l3.485 10.84-1.055 4.595h3.817l4.51-15.435h-3.85M45.08 37.39v-5.793c-.004-1.47.386-2.024 1.654-2.053h2.79l-.738-2.52h-2.82c-2.58.003-4.72.782-4.706 4.22v8.022c-.09 2.486 2.17 3.186 4.707 3.19H49.4l.577-2.52h-3.24c-1.56-.038-1.66-1.005-1.656-2.545zm92.416-7.764h2.852v12.832h3.822V29.626h2.85v-2.603h-9.52m11.24 15.435h7.647v-2.603h-3.883v-3.812h2.95v-2.605h-2.95v-3.812h3.883v-2.603h-7.646m18.42 0h-8.57v15.435h3.76V29.626h4.22m18.58 2.714v-2.125c.01-1.28-.44-2.142-1.27-2.612-.82-.47-1.44-.58-2.84-.58h-4.59l.58 2.52h3.25c.64.015.83.17.97.475.14.32.15 1.394.15 1.394.01.69-.01 1.242-.15 1.556-.14.294-.32.45-.93.47h-2.44l.48 2.604h1.93c.64.015.82.172.97.476.14.32.16 1.385.16 1.385.004.693-.012 1.248-.152 1.56-.14.3-.33.455-.967.47h-3.07l-.28 1.298-3.72-14.2h-4.39l-4.04 15.44h3.8l.87-3.81h3.12l.88 3.82h7.073c1.404 0 2.53-.11 3.356-.58.83-.46 1.283-1.33 1.273-2.61v-2.12c.006-1.11-.334-1.91-.97-2.4.636-.49.976-1.29.97-2.4zm-15.09 3.703l.96-4.188.96 4.188h-1.91zm-55.69 6.415H122v-2.603h-3.883v-3.812h2.948v-2.605h-2.948v-3.812H122v-2.603h-7.648m-6.4 6.415h-2.14v-6.415h-3.76v15.435h3.76v-6.416h2.14v6.416h3.76V27.023h-3.76m24.406 1.6h-.4V26.88h-3.763v1.742h-.403c-3.22.004-4.804 2.552-4.81 4.78v2.654c.006 2.228 1.63 4.82 4.81 4.823h.403v1.57h3.762v-1.57h.4c3.182-.01 4.81-2.6 4.812-4.83V33.4c-.01-2.227-1.59-4.774-4.82-4.78zm-4.163 9.65h-.15c-.595-.003-.88-.34-1.08-.8-.19-.45-.22-.987-.22-1.183v-2.914c0-.326.005-.9.16-1.366.177-.468.413-.775.995-.782h.295v7.046zm5.216-1.843c.01.205-.02.704-.21 1.116-.19.413-.47.723-1.09.73h-.15v-7.048h.3c.57.004.82.358 1 .84.17.477.17 1.012.17 1.147v3.215zM43.56 19.623h-.96V17.13h-1.336V23H42.6v-2.493h.957V23h1.335v-5.87h-1.334v2.493zm34.76-2.276c-.34-.19-.832-.217-1.27-.217h-1.67V23h1.334v-1.508h.332c.463 0 .936-.028 1.27-.22.31-.17.468-.494.466-.955v-2.01c.004-.46-.153-.785-.464-.96zm-.87 2.41c0 .275-.003.494-.062.633-.074.155-.188.212-.436.22h-.235v-2.595h.235c.25.006.357.06.435.224.06.13.062.36.062.63v.88zm83.64-3.51h-.96v.883h.96v-.884zm-48.378 0h-.957v.883h.96v-.884zM82.77 18.015h1.11V23h1.334v-4.985h1.09v-.885H82.77v.885zm7.073-.668c-.306-.17-.526-.217-1.072-.217H86.9V23h1.667c.464 0 .938-.027 1.274-.216.31-.174.47-.497.47-.958v-.824c0-.402-.11-.7-.35-.884l-.06-.05.07-.052c.24-.183.36-.48.35-.882v-.828c.01-.46-.15-.783-.46-.96zm-.94 4.583c-.072.157-.182.212-.432.22h-.23v-1.642h.24c.25.005.36.06.43.225.06.132.07.52.07.562 0 .277 0 .5-.06.635zm0-2.525c-.07.154-.18.21-.42.218h-.25v-1.608h.066l.41.003c.11.04.16.112.19.19.06.13.06.52.06.566 0 .273-.01.497-.07.63zM69.49 17.13h-3.143l-.402 4.93-.006.06h-.63V23h4.65v-.88h-.48v-4.99zm-1.337 4.99h-.865l.007-.074.393-3.974.007-.057h.46v4.104zm-8.858-1.024v-2.25c-.002-.617.19-.85.708-.863h1l-.25-.853h-1.05c-.663.003-1.103.137-1.388.422-.256.256-.38.634-.375 1.154v3.12c-.014.304.073.552.25.736.277.29.788.437 1.513.438h1.284l.195-.852H60c-.657-.014-.707-.446-.705-1.052zm4.846-3.966l-.54 2.41h-.12l-.57-2.41h-1.42l1.33 4.13.01.018v.017L62.43 23h1.356l1.714-5.87h-1.36zm-8.85 0h-.28c-.66.003-1.1.137-1.38.42-.25.258-.38.637-.38 1.157v3.12c-.01.304.08.552.26.736.28.29.79.437 1.52.438h.28c.73 0 1.24-.14 1.51-.43.18-.18.27-.43.26-.74v-3.12c.01-.52-.12-.9-.37-1.15-.28-.28-.72-.42-1.38-.42zm.41 3.966c0 .606-.03 1.038-.54 1.053-.51-.02-.54-.45-.54-1.06v-2.25c0-.62.15-.85.55-.87h.01c.4.01.55.24.55.86v2.25zM46.05 23h2.84v-.88h-1.51v-1.61h1.146v-.887H47.38v-1.608h1.51v-.885h-2.844V23zm3.8 0h1.33v-4.985h1.653l.2-.885h-3.19V23zm21.87-5.87L70.18 23h1.343l.328-1.43.02-.05h1.32l.01.05.33 1.43h1.35l-1.54-5.87h-1.61zm.35 3.506l.02-.08.363-1.626h.13l.37 1.627.018.08h-.9zM91.21 23h2.843v-.88h-1.51v-1.61h1.146v-.887h-1.15v-1.608h1.51v-.885h-2.84V23zm-10.35-1.904v-2.25c0-.617.19-.85.71-.863h.734v-.853H81.27c-.662.003-1.102.137-1.387.422-.257.256-.38.634-.378 1.154v3.122c-.01.303.073.548.25.734.28.29.79.437 1.516.438h1.28v-.852h-.97c-.65-.014-.71-.446-.7-1.052zm69.236-1.473h-.958V17.13H147.8V23h1.336v-2.493h.956V23h1.334v-5.87h-1.333v2.493zm5.395.247c-.33-.187-.81-.214-1.27-.214h-.33v-2.5h-1.33v5.82h1.67c.46-.003.94-.027 1.27-.217.31-.18.47-.5.47-.95v-.99c.01-.46-.15-.78-.46-.95zm-.93 2.01c-.08.158-.19.213-.43.22h-.23v-1.57h.24c.25.005.36.06.44.217.05.118.07.296.07.562 0 .27-.01.45-.06.57zm-9.05-2.257h-.96V17.13h-1.33V23h1.34v-2.493h.96V23h1.33v-5.87h-1.33v2.493zM156.37 23h1.334v-5.87h-1.335V23zm22.383-3.377h-.958V17.13h-1.336V23h1.33v-2.493h.96V23h1.33v-5.87h-1.33v2.493zm5.912 2.496v-4.99h-3.14l-.403 4.93-.005.06h-.626V23h4.66v-.88h-.48zm-1.333 0h-.865l.006-.08.392-3.98.007-.06h.46v4.1zm-86.206-2.5h-.958v-2.49h-1.334V23h1.334v-2.493h.958V23h1.335v-5.87h-1.33v2.493zm63.957-1.4l-.957 1.82v-2.92h-1.333V23h1.335v-1.097l.957-1.824V23h1.333v-5.87h-1.334v1.1zm8.163-.48h-.22v-.68h-1.335v.67h-.21c-1.17 0-1.8.92-1.81 1.79v1.03c0 .87.64 1.81 1.81 1.81h.22V23h1.34v-.61h.22c1.17 0 1.81-.935 1.81-1.812v-1.034c0-.866-.63-1.79-1.8-1.793zm-1.556 3.76h-.12c-.292-.01-.41-.2-.477-.35-.09-.22-.09-.46-.09-.49v-1.13c0-.17.006-.38.066-.56.06-.17.16-.34.44-.35h.18v2.87zm1.944-.33c-.07.15-.188.32-.482.32h-.12v-2.87h.18c.275 0 .383.2.445.37.03.09.067.24.067.46v1.25c.002.02.002.26-.088.46zm-33.69-2.95l-.958 1.82v-2.92h-1.333V23h1.336v-1.097l.95-1.824V23h1.33v-5.87h-1.34v1.1zm-23.237 0l-.954 1.82v-2.92h-1.334V23h1.33v-1.097l.95-1.824V23h1.33v-5.87h-1.33v1.1zm-5.59 1.64c-.335-.19-.81-.22-1.272-.22h-.332v-2.5h-1.333v5.82h1.665c.464-.01.937-.03 1.27-.22.312-.18.468-.5.467-.95v-.99c0-.46-.155-.78-.466-.95zm-.935 2.01c-.074.15-.185.21-.434.22h-.234v-1.57h.237c.25 0 .36.06.44.21.05.12.07.29.07.56 0 .27-.01.45-.06.57zm-4.46-2.26h-.96v-2.49H99.43V23h1.334v-2.493h.96V23h1.334v-5.87h-1.335v2.493zM117.52 23h1.334v-4.984h.958V23h1.335v-5.87h-3.628V23zm-9.526 0h1.334v-5.87h-1.334V23zm19.774-3.377h-.958V17.13h-1.333V23h1.333v-2.493h.958V23h1.335v-5.87h-1.335v2.493zm2.46-2.07c-.255.255-.378.633-.374 1.153v3.122c-.014.303.07.55.25.734.276.29.786.437 1.51.438h1.273v-.852h-.972c-.66-.015-.71-.447-.708-1.053v-2.25c0-.617.19-.85.71-.863h.97v-.852h-1.272c-.66.003-1.1.137-1.387.422zM122.074 23h2.843v-.88h-1.508v-1.61h1.14v-.887h-1.15v-1.608h1.5v-.885h-2.85V23zm18.295-5.87h-.28c-.66.003-1.1.137-1.39.42-.26.258-.38.637-.38 1.157v3.12c-.01.304.07.552.25.736.28.29.79.437 1.51.438h.28c.72 0 1.23-.14 1.51-.43.17-.18.26-.43.25-.74v-3.12c0-.52-.12-.9-.38-1.15-.28-.28-.73-.42-1.39-.42zm.4 3.966c0 .606-.04 1.038-.55 1.053-.51-.02-.55-.45-.55-1.06v-2.25c0-.62.14-.85.54-.87.39.01.54.24.54.86v2.25zm32.98-3.966h-.28c-.66.003-1.11.137-1.39.42-.26.258-.38.637-.38 1.157v3.12c-.01.304.07.552.25.736.27.29.79.437 1.51.438h.28c.72 0 1.23-.14 1.51-.43.17-.18.26-.43.25-.74v-3.12c0-.52-.13-.9-.38-1.15-.29-.28-.73-.42-1.39-.42zm.4 3.966c0 .606-.04 1.038-.55 1.053-.51-.02-.55-.45-.55-1.06v-2.25c-.01-.62.14-.85.54-.87.4.01.54.24.54.86v2.25z"/>
  <path fill="#979695" d="M43.616 7.744h1.238l2.355 5.166h-1.44l-.47-1.096h-2.28l-.47 1.096h-1.39l2.45-5.166zm1.217 3.024l-.69-1.594-.677 1.594h1.367zm5.36-1.038l2.18-1.986h1.663L51.76 9.75l2.555 3.16h-1.587l-1.88-2.37-.653.584v1.786H48.9V7.744h1.295V9.73zm7.177 2.12h2.483V7.743h1.295v4.105h.604v2.155h-1.237V12.91h-4.44V7.744h1.295v4.105zm7.57-4.106v3.643l2.584-3.643h1.594v5.166h-1.245V9.23l-2.605 3.68h-1.572V7.744h1.245zm12.35 2.583c0 1.637-1.188 2.718-3.088 2.718-1.9 0-3.096-1.082-3.096-2.718 0-1.637 1.196-2.718 3.096-2.718 1.9-.01 3.09 1.08 3.09 2.71zm-4.76 0c0 1.032.64 1.658 1.672 1.658s1.665-.627 1.665-1.658c0-1.04-.633-1.658-1.665-1.658-1.03 0-1.672.62-1.672 1.65zm8.048-.662h2.483v-1.92h1.3v5.165h-1.3v-2.185h-2.48v2.185h-1.29V7.744h1.3v1.92zm10.64-1.92v1.06H87.92v.86h2.932v1.06H87.92v1.124h3.295v1.06h-4.59V7.74h4.59zm2.112 0h3.06c1.21 0 1.9.667 1.9 1.757 0 1.096-.69 1.786-1.9 1.786h-1.766v1.622H93.33V7.744zm1.294 2.482h1.188c.805 0 1.182-.135 1.182-.705 0-.59-.327-.72-1.096-.72h-1.274v1.425zm6.868-.562h2.483v-1.92h1.295v5.165h-1.295v-2.185h-2.483v2.185h-1.295V7.744h1.295v1.92zm11.95.662c0 1.637-1.187 2.718-3.09 2.718-1.9 0-3.094-1.082-3.094-2.718 0-1.637 1.195-2.718 3.096-2.718 1.9-.01 3.09 1.08 3.09 2.71zm-4.76 0c0 1.032.64 1.658 1.673 1.658 1.03 0 1.665-.627 1.665-1.658 0-1.04-.634-1.658-1.665-1.658-1.033 0-1.672.62-1.672 1.65zm11.342-2.583v1.06h-3.295v.86h2.93v1.06h-2.93v1.125h3.29v1.06h-4.59V7.74h4.59zm11.846 2.583c0 1.637-1.19 2.718-3.088 2.718-1.9 0-3.096-1.082-3.096-2.718 0-1.637 1.195-2.718 3.096-2.718 1.9-.01 3.088 1.08 3.088 2.71zm-4.76 0c0 1.032.64 1.658 1.672 1.658 1.03 0 1.665-.627 1.665-1.658 0-1.04-.634-1.658-1.665-1.658-1.032 0-1.673.62-1.673 1.65zm11.093-2.583v1.06h-3.046v.86H137c1.097 0 1.73.634 1.73 1.638 0 .996-.62 1.608-1.723 1.608h-3.146V7.744h4.35zm-3.046 4.105h1.39c.632 0 .888-.11.888-.59 0-.46-.306-.54-.953-.54h-1.324v1.12zm6.843 0h1.835V7.74h1.295v4.105h1.836V7.743h1.295v4.105h.61v2.155h-1.24V12.91h-6.92V7.744H142v4.105zm13.407-4.11V8.8h-3.295v.86h2.932v1.06h-2.932v1.126h3.295v1.06h-4.59V7.743h4.59zm6.373 1.88c-.17-.64-.69-.96-1.543-.96-1.032 0-1.673.62-1.673 1.65s.64 1.66 1.673 1.66c.91 0 1.473-.41 1.56-1.08h1.415c-.136 1.27-1.274 2.14-2.975 2.14-1.9 0-3.096-1.08-3.096-2.72s1.2-2.72 3.1-2.72c1.7 0 2.83.85 2.95 2.02h-1.41zm7.746-1.89V8.8h-1.772v4.107h-1.295V8.803h-1.78v-1.06h4.84zm1.734 0h3.338c1.16 0 1.743.42 1.743 1.28 0 .5-.24.9-.7 1.13.6.19.9.62.9 1.27 0 .89-.6 1.47-1.67 1.47h-3.6V7.74zm1.295 2.07h1.53c.612 0 .904-.09.904-.54 0-.4-.29-.48-.91-.48h-1.53V9.8zm0 2.03h1.723c.612 0 .904-.07.904-.54 0-.44-.285-.6-.904-.6h-1.723v1.13zm11.885-1.53c0 1.63-1.187 2.71-3.088 2.71-1.9 0-3.096-1.08-3.096-2.72s1.196-2.72 3.096-2.72c1.9 0 3.09 1.08 3.09 2.714zm-4.76 0c0 1.03.642 1.65 1.673 1.65 1.032 0 1.665-.63 1.665-1.66 0-1.04-.633-1.66-1.665-1.66s-1.672.622-1.672 1.654z"/>
</svg>