<svg id="vk_1_" data-name="vk (1)" xmlns="http://www.w3.org/2000/svg" width="25.344" height="25.344" viewBox="0 0 25.344 25.344">
  <g id="Group_23" data-name="Group 23" transform="translate(0 0)">
    <circle id="XMLID_11_" cx="12.672" cy="12.672" r="12.672" fill="#0069aa"/>
  </g>
  <path id="Path_236" data-name="Path 236" d="M26.08,48.308h.995a.839.839,0,0,0,.454-.2.728.728,0,0,0,.137-.437s-.019-1.335.6-1.531,1.395,1.29,2.226,1.86a1.575,1.575,0,0,0,1.106.337l2.222-.031s1.162-.072.611-.986a7.425,7.425,0,0,0-1.652-1.912c-1.393-1.293-1.207-1.084.472-3.321,1.022-1.362,1.431-2.194,1.3-2.55-.122-.339-.874-.25-.874-.25l-2.5.016a.568.568,0,0,0-.323.057.7.7,0,0,0-.221.269,14.486,14.486,0,0,1-.924,1.951c-1.114,1.892-1.56,1.992-1.742,1.874-.424-.274-.318-1.1-.318-1.687,0-1.833.278-2.6-.541-2.8a4.272,4.272,0,0,0-1.168-.116,5.393,5.393,0,0,0-2.076.212c-.285.139-.5.45-.37.468a1.123,1.123,0,0,1,.738.371,2.414,2.414,0,0,1,.247,1.132s.147,2.158-.344,2.426c-.337.184-.8-.192-1.793-1.908a15.955,15.955,0,0,1-.893-1.851.743.743,0,0,0-.206-.279,1.037,1.037,0,0,0-.384-.155l-2.377.016s-.357.01-.488.165c-.117.138-.009.424-.009.424a27.055,27.055,0,0,0,3.969,6.549,5.709,5.709,0,0,0,4.127,1.88Z" transform="translate(-13.887 -30.078)" fill="#fff" fill-rule="evenodd"/>
</svg>
